<mxfile host="app.diagrams.net" modified="2020-09-14T17:47:27.790Z" agent="5.0 (Windows)" etag="gOFHQAW-tAL2exI5jQWt" version="13.6.10" type="github" pages="3">
  <diagram id="R2lEEEUBdFMjLlhIrx00" name="Page-1">
    <mxGraphModel dx="1437" dy="1077" grid="1" gridSize="10" guides="1" tooltips="1" connect="1" arrows="1" fold="1" page="1" pageScale="1" pageWidth="850" pageHeight="1100" math="0" shadow="0" extFonts="Permanent Marker^https://fonts.googleapis.com/css?family=Permanent+Marker">
      <root>
        <mxCell id="0" />
        <mxCell id="1" parent="0" />
        <mxCell id="C-vyLk0tnHw3VtMMgP7b-1" value="" style="edgeStyle=entityRelationEdgeStyle;endArrow=ERzeroToMany;startArrow=ERone;endFill=1;startFill=0;" parent="1" target="C-vyLk0tnHw3VtMMgP7b-6" edge="1">
          <mxGeometry width="100" height="100" relative="1" as="geometry">
            <mxPoint x="310" y="115" as="sourcePoint" />
            <mxPoint x="440" y="620" as="targetPoint" />
          </mxGeometry>
        </mxCell>
        <mxCell id="C-vyLk0tnHw3VtMMgP7b-12" value="" style="edgeStyle=entityRelationEdgeStyle;endArrow=ERzeroToMany;startArrow=ERone;endFill=1;startFill=0;" parent="1" source="C-vyLk0tnHw3VtMMgP7b-3" target="C-vyLk0tnHw3VtMMgP7b-17" edge="1">
          <mxGeometry width="100" height="100" relative="1" as="geometry">
            <mxPoint x="400" y="180" as="sourcePoint" />
            <mxPoint x="460" y="205" as="targetPoint" />
          </mxGeometry>
        </mxCell>
        <mxCell id="C-vyLk0tnHw3VtMMgP7b-2" value="Orders" style="shape=table;startSize=30;container=1;collapsible=1;childLayout=tableLayout;fixedRows=1;rowLines=0;fontStyle=1;align=center;resizeLast=1;" parent="1" vertex="1">
          <mxGeometry x="450" y="120" width="250" height="130" as="geometry" />
        </mxCell>
        <mxCell id="C-vyLk0tnHw3VtMMgP7b-3" value="" style="shape=partialRectangle;collapsible=0;dropTarget=0;pointerEvents=0;fillColor=none;points=[[0,0.5],[1,0.5]];portConstraint=eastwest;top=0;left=0;right=0;bottom=1;" parent="C-vyLk0tnHw3VtMMgP7b-2" vertex="1">
          <mxGeometry y="30" width="250" height="30" as="geometry" />
        </mxCell>
        <mxCell id="C-vyLk0tnHw3VtMMgP7b-4" value="PK" style="shape=partialRectangle;overflow=hidden;connectable=0;fillColor=none;top=0;left=0;bottom=0;right=0;fontStyle=1;" parent="C-vyLk0tnHw3VtMMgP7b-3" vertex="1">
          <mxGeometry width="30" height="30" as="geometry" />
        </mxCell>
        <mxCell id="C-vyLk0tnHw3VtMMgP7b-5" value="order_id int NOT NULL " style="shape=partialRectangle;overflow=hidden;connectable=0;fillColor=none;top=0;left=0;bottom=0;right=0;align=left;spacingLeft=6;fontStyle=5;" parent="C-vyLk0tnHw3VtMMgP7b-3" vertex="1">
          <mxGeometry x="30" width="220" height="30" as="geometry" />
        </mxCell>
        <mxCell id="C-vyLk0tnHw3VtMMgP7b-6" value="" style="shape=partialRectangle;collapsible=0;dropTarget=0;pointerEvents=0;fillColor=none;points=[[0,0.5],[1,0.5]];portConstraint=eastwest;top=0;left=0;right=0;bottom=0;" parent="C-vyLk0tnHw3VtMMgP7b-2" vertex="1">
          <mxGeometry y="60" width="250" height="30" as="geometry" />
        </mxCell>
        <mxCell id="C-vyLk0tnHw3VtMMgP7b-7" value="FK1" style="shape=partialRectangle;overflow=hidden;connectable=0;fillColor=none;top=0;left=0;bottom=0;right=0;" parent="C-vyLk0tnHw3VtMMgP7b-6" vertex="1">
          <mxGeometry width="30" height="30" as="geometry" />
        </mxCell>
        <mxCell id="C-vyLk0tnHw3VtMMgP7b-8" value="customer_id int NOT NULL" style="shape=partialRectangle;overflow=hidden;connectable=0;fillColor=none;top=0;left=0;bottom=0;right=0;align=left;spacingLeft=6;" parent="C-vyLk0tnHw3VtMMgP7b-6" vertex="1">
          <mxGeometry x="30" width="220" height="30" as="geometry" />
        </mxCell>
        <mxCell id="C-vyLk0tnHw3VtMMgP7b-9" value="" style="shape=partialRectangle;collapsible=0;dropTarget=0;pointerEvents=0;fillColor=none;points=[[0,0.5],[1,0.5]];portConstraint=eastwest;top=0;left=0;right=0;bottom=0;" parent="C-vyLk0tnHw3VtMMgP7b-2" vertex="1">
          <mxGeometry y="90" width="250" height="30" as="geometry" />
        </mxCell>
        <mxCell id="C-vyLk0tnHw3VtMMgP7b-10" value="" style="shape=partialRectangle;overflow=hidden;connectable=0;fillColor=none;top=0;left=0;bottom=0;right=0;" parent="C-vyLk0tnHw3VtMMgP7b-9" vertex="1">
          <mxGeometry width="30" height="30" as="geometry" />
        </mxCell>
        <mxCell id="C-vyLk0tnHw3VtMMgP7b-11" value="order_date date NOT NULL" style="shape=partialRectangle;overflow=hidden;connectable=0;fillColor=none;top=0;left=0;bottom=0;right=0;align=left;spacingLeft=6;" parent="C-vyLk0tnHw3VtMMgP7b-9" vertex="1">
          <mxGeometry x="30" width="220" height="30" as="geometry" />
        </mxCell>
        <mxCell id="C-vyLk0tnHw3VtMMgP7b-13" value="Shipments" style="shape=table;startSize=30;container=1;collapsible=1;childLayout=tableLayout;fixedRows=1;rowLines=0;fontStyle=1;align=center;resizeLast=1;" parent="1" vertex="1">
          <mxGeometry x="450" y="280" width="250" height="130" as="geometry" />
        </mxCell>
        <mxCell id="C-vyLk0tnHw3VtMMgP7b-14" value="" style="shape=partialRectangle;collapsible=0;dropTarget=0;pointerEvents=0;fillColor=none;points=[[0,0.5],[1,0.5]];portConstraint=eastwest;top=0;left=0;right=0;bottom=1;" parent="C-vyLk0tnHw3VtMMgP7b-13" vertex="1">
          <mxGeometry y="30" width="250" height="30" as="geometry" />
        </mxCell>
        <mxCell id="C-vyLk0tnHw3VtMMgP7b-15" value="PK" style="shape=partialRectangle;overflow=hidden;connectable=0;fillColor=none;top=0;left=0;bottom=0;right=0;fontStyle=1;" parent="C-vyLk0tnHw3VtMMgP7b-14" vertex="1">
          <mxGeometry width="30" height="30" as="geometry" />
        </mxCell>
        <mxCell id="C-vyLk0tnHw3VtMMgP7b-16" value="shipment_id int NOT NULL " style="shape=partialRectangle;overflow=hidden;connectable=0;fillColor=none;top=0;left=0;bottom=0;right=0;align=left;spacingLeft=6;fontStyle=5;" parent="C-vyLk0tnHw3VtMMgP7b-14" vertex="1">
          <mxGeometry x="30" width="220" height="30" as="geometry" />
        </mxCell>
        <mxCell id="C-vyLk0tnHw3VtMMgP7b-17" value="" style="shape=partialRectangle;collapsible=0;dropTarget=0;pointerEvents=0;fillColor=none;points=[[0,0.5],[1,0.5]];portConstraint=eastwest;top=0;left=0;right=0;bottom=0;" parent="C-vyLk0tnHw3VtMMgP7b-13" vertex="1">
          <mxGeometry y="60" width="250" height="30" as="geometry" />
        </mxCell>
        <mxCell id="C-vyLk0tnHw3VtMMgP7b-18" value="FK1" style="shape=partialRectangle;overflow=hidden;connectable=0;fillColor=none;top=0;left=0;bottom=0;right=0;" parent="C-vyLk0tnHw3VtMMgP7b-17" vertex="1">
          <mxGeometry width="30" height="30" as="geometry" />
        </mxCell>
        <mxCell id="C-vyLk0tnHw3VtMMgP7b-19" value="order_id int NOT NULL" style="shape=partialRectangle;overflow=hidden;connectable=0;fillColor=none;top=0;left=0;bottom=0;right=0;align=left;spacingLeft=6;" parent="C-vyLk0tnHw3VtMMgP7b-17" vertex="1">
          <mxGeometry x="30" width="220" height="30" as="geometry" />
        </mxCell>
        <mxCell id="C-vyLk0tnHw3VtMMgP7b-20" value="" style="shape=partialRectangle;collapsible=0;dropTarget=0;pointerEvents=0;fillColor=none;points=[[0,0.5],[1,0.5]];portConstraint=eastwest;top=0;left=0;right=0;bottom=0;" parent="C-vyLk0tnHw3VtMMgP7b-13" vertex="1">
          <mxGeometry y="90" width="250" height="30" as="geometry" />
        </mxCell>
        <mxCell id="C-vyLk0tnHw3VtMMgP7b-21" value="" style="shape=partialRectangle;overflow=hidden;connectable=0;fillColor=none;top=0;left=0;bottom=0;right=0;" parent="C-vyLk0tnHw3VtMMgP7b-20" vertex="1">
          <mxGeometry width="30" height="30" as="geometry" />
        </mxCell>
        <mxCell id="C-vyLk0tnHw3VtMMgP7b-22" value="shipment_date date NOT NULL" style="shape=partialRectangle;overflow=hidden;connectable=0;fillColor=none;top=0;left=0;bottom=0;right=0;align=left;spacingLeft=6;" parent="C-vyLk0tnHw3VtMMgP7b-20" vertex="1">
          <mxGeometry x="30" width="220" height="30" as="geometry" />
        </mxCell>
      </root>
    </mxGraphModel>
  </diagram>
  <diagram id="6sfjvH8wAe0XbjZtv5F1" name="Page-2">
    <mxGraphModel dx="1437" dy="1077" grid="1" gridSize="10" guides="1" tooltips="1" connect="1" arrows="1" fold="1" page="1" pageScale="1" pageWidth="850" pageHeight="1100" math="0" shadow="0">
      <root>
        <mxCell id="d2Pd9lmMDD_tgMKhtwr2-0" />
        <mxCell id="d2Pd9lmMDD_tgMKhtwr2-1" parent="d2Pd9lmMDD_tgMKhtwr2-0" />
        <mxCell id="NzNRLXZzmgVNKe7Nmsyy-0" value="corridor_segments" style="shape=table;startSize=30;container=1;collapsible=1;childLayout=tableLayout;fixedRows=1;rowLines=0;fontStyle=1;align=center;resizeLast=1;" vertex="1" parent="d2Pd9lmMDD_tgMKhtwr2-1">
          <mxGeometry x="60" y="30" width="250" height="190" as="geometry">
            <mxRectangle x="120" y="120" width="160" height="30" as="alternateBounds" />
          </mxGeometry>
        </mxCell>
        <mxCell id="NzNRLXZzmgVNKe7Nmsyy-1" value="" style="shape=partialRectangle;collapsible=0;dropTarget=0;pointerEvents=0;fillColor=none;points=[[0,0.5],[1,0.5]];portConstraint=eastwest;top=0;left=0;right=0;bottom=1;" vertex="1" parent="NzNRLXZzmgVNKe7Nmsyy-0">
          <mxGeometry y="30" width="250" height="30" as="geometry" />
        </mxCell>
        <mxCell id="NzNRLXZzmgVNKe7Nmsyy-2" value="PK" style="shape=partialRectangle;overflow=hidden;connectable=0;fillColor=none;top=0;left=0;bottom=0;right=0;fontStyle=1;" vertex="1" parent="NzNRLXZzmgVNKe7Nmsyy-1">
          <mxGeometry width="30" height="30" as="geometry" />
        </mxCell>
        <mxCell id="NzNRLXZzmgVNKe7Nmsyy-3" value="OBJECTID int NOT NULL " style="shape=partialRectangle;overflow=hidden;connectable=0;fillColor=none;top=0;left=0;bottom=0;right=0;align=left;spacingLeft=6;fontStyle=5;" vertex="1" parent="NzNRLXZzmgVNKe7Nmsyy-1">
          <mxGeometry x="30" width="220" height="30" as="geometry" />
        </mxCell>
        <mxCell id="NzNRLXZzmgVNKe7Nmsyy-4" style="shape=partialRectangle;collapsible=0;dropTarget=0;pointerEvents=0;fillColor=none;points=[[0,0.5],[1,0.5]];portConstraint=eastwest;top=0;left=0;right=0;bottom=0;" vertex="1" parent="NzNRLXZzmgVNKe7Nmsyy-0">
          <mxGeometry y="60" width="250" height="30" as="geometry" />
        </mxCell>
        <mxCell id="NzNRLXZzmgVNKe7Nmsyy-5" style="shape=partialRectangle;overflow=hidden;connectable=0;fillColor=none;top=0;left=0;bottom=0;right=0;" vertex="1" parent="NzNRLXZzmgVNKe7Nmsyy-4">
          <mxGeometry width="30" height="30" as="geometry" />
        </mxCell>
        <mxCell id="NzNRLXZzmgVNKe7Nmsyy-6" value="Shape geometry NOT NULL" style="shape=partialRectangle;overflow=hidden;connectable=0;fillColor=none;top=0;left=0;bottom=0;right=0;align=left;spacingLeft=6;" vertex="1" parent="NzNRLXZzmgVNKe7Nmsyy-4">
          <mxGeometry x="30" width="220" height="30" as="geometry" />
        </mxCell>
        <mxCell id="NzNRLXZzmgVNKe7Nmsyy-7" value="" style="shape=partialRectangle;collapsible=0;dropTarget=0;pointerEvents=0;fillColor=none;points=[[0,0.5],[1,0.5]];portConstraint=eastwest;top=0;left=0;right=0;bottom=0;" vertex="1" parent="NzNRLXZzmgVNKe7Nmsyy-0">
          <mxGeometry y="90" width="250" height="30" as="geometry" />
        </mxCell>
        <mxCell id="NzNRLXZzmgVNKe7Nmsyy-8" value="" style="shape=partialRectangle;overflow=hidden;connectable=0;fillColor=none;top=0;left=0;bottom=0;right=0;" vertex="1" parent="NzNRLXZzmgVNKe7Nmsyy-7">
          <mxGeometry width="30" height="30" as="geometry" />
        </mxCell>
        <mxCell id="NzNRLXZzmgVNKe7Nmsyy-9" value="SegmentNm char(50) [Segment name]" style="shape=partialRectangle;overflow=hidden;connectable=0;fillColor=none;top=0;left=0;bottom=0;right=0;align=left;spacingLeft=6;" vertex="1" parent="NzNRLXZzmgVNKe7Nmsyy-7">
          <mxGeometry x="30" width="220" height="30" as="geometry" />
        </mxCell>
        <mxCell id="EbTDLBitO4-8GcSiULzN-46" style="shape=partialRectangle;collapsible=0;dropTarget=0;pointerEvents=0;fillColor=none;points=[[0,0.5],[1,0.5]];portConstraint=eastwest;top=0;left=0;right=0;bottom=0;" vertex="1" parent="NzNRLXZzmgVNKe7Nmsyy-0">
          <mxGeometry y="120" width="250" height="30" as="geometry" />
        </mxCell>
        <mxCell id="EbTDLBitO4-8GcSiULzN-47" style="shape=partialRectangle;overflow=hidden;connectable=0;fillColor=none;top=0;left=0;bottom=0;right=0;" vertex="1" parent="EbTDLBitO4-8GcSiULzN-46">
          <mxGeometry width="30" height="30" as="geometry" />
        </mxCell>
        <mxCell id="EbTDLBitO4-8GcSiULzN-48" value="SegmentNum int [Segment number]" style="shape=partialRectangle;overflow=hidden;connectable=0;fillColor=none;top=0;left=0;bottom=0;right=0;align=left;spacingLeft=6;" vertex="1" parent="EbTDLBitO4-8GcSiULzN-46">
          <mxGeometry x="30" width="220" height="30" as="geometry" />
        </mxCell>
        <mxCell id="NzNRLXZzmgVNKe7Nmsyy-10" style="shape=partialRectangle;collapsible=0;dropTarget=0;pointerEvents=0;fillColor=none;points=[[0,0.5],[1,0.5]];portConstraint=eastwest;top=0;left=0;right=0;bottom=0;" vertex="1" parent="NzNRLXZzmgVNKe7Nmsyy-0">
          <mxGeometry y="150" width="250" height="30" as="geometry" />
        </mxCell>
        <mxCell id="NzNRLXZzmgVNKe7Nmsyy-11" style="shape=partialRectangle;overflow=hidden;connectable=0;fillColor=none;top=0;left=0;bottom=0;right=0;" vertex="1" parent="NzNRLXZzmgVNKe7Nmsyy-10">
          <mxGeometry width="30" height="30" as="geometry" />
        </mxCell>
        <mxCell id="NzNRLXZzmgVNKe7Nmsyy-12" value="Area2 float [geometric area in Acres]" style="shape=partialRectangle;overflow=hidden;connectable=0;fillColor=none;top=0;left=0;bottom=0;right=0;align=left;spacingLeft=6;" vertex="1" parent="NzNRLXZzmgVNKe7Nmsyy-10">
          <mxGeometry x="30" width="220" height="30" as="geometry" />
        </mxCell>
        <mxCell id="EbTDLBitO4-8GcSiULzN-0" value="corridor" style="shape=table;startSize=30;container=1;collapsible=1;childLayout=tableLayout;fixedRows=1;rowLines=0;fontStyle=1;align=center;resizeLast=1;" vertex="1" parent="d2Pd9lmMDD_tgMKhtwr2-1">
          <mxGeometry x="60" y="250" width="250" height="490" as="geometry">
            <mxRectangle x="120" y="120" width="160" height="30" as="alternateBounds" />
          </mxGeometry>
        </mxCell>
        <mxCell id="EbTDLBitO4-8GcSiULzN-1" value="" style="shape=partialRectangle;collapsible=0;dropTarget=0;pointerEvents=0;fillColor=none;points=[[0,0.5],[1,0.5]];portConstraint=eastwest;top=0;left=0;right=0;bottom=1;" vertex="1" parent="EbTDLBitO4-8GcSiULzN-0">
          <mxGeometry y="30" width="250" height="30" as="geometry" />
        </mxCell>
        <mxCell id="EbTDLBitO4-8GcSiULzN-2" value="PK" style="shape=partialRectangle;overflow=hidden;connectable=0;fillColor=none;top=0;left=0;bottom=0;right=0;fontStyle=1;" vertex="1" parent="EbTDLBitO4-8GcSiULzN-1">
          <mxGeometry width="30" height="30" as="geometry" />
        </mxCell>
        <mxCell id="EbTDLBitO4-8GcSiULzN-3" value="OBJECTID int NOT NULL " style="shape=partialRectangle;overflow=hidden;connectable=0;fillColor=none;top=0;left=0;bottom=0;right=0;align=left;spacingLeft=6;fontStyle=5;" vertex="1" parent="EbTDLBitO4-8GcSiULzN-1">
          <mxGeometry x="30" width="220" height="30" as="geometry" />
        </mxCell>
        <mxCell id="EbTDLBitO4-8GcSiULzN-4" style="shape=partialRectangle;collapsible=0;dropTarget=0;pointerEvents=0;fillColor=none;points=[[0,0.5],[1,0.5]];portConstraint=eastwest;top=0;left=0;right=0;bottom=0;" vertex="1" parent="EbTDLBitO4-8GcSiULzN-0">
          <mxGeometry y="60" width="250" height="30" as="geometry" />
        </mxCell>
        <mxCell id="EbTDLBitO4-8GcSiULzN-5" style="shape=partialRectangle;overflow=hidden;connectable=0;fillColor=none;top=0;left=0;bottom=0;right=0;" vertex="1" parent="EbTDLBitO4-8GcSiULzN-4">
          <mxGeometry width="30" height="30" as="geometry" />
        </mxCell>
        <mxCell id="EbTDLBitO4-8GcSiULzN-6" value="Shape geometry NOT NULL" style="shape=partialRectangle;overflow=hidden;connectable=0;fillColor=none;top=0;left=0;bottom=0;right=0;align=left;spacingLeft=6;" vertex="1" parent="EbTDLBitO4-8GcSiULzN-4">
          <mxGeometry x="30" width="220" height="30" as="geometry" />
        </mxCell>
        <mxCell id="EbTDLBitO4-8GcSiULzN-7" value="" style="shape=partialRectangle;collapsible=0;dropTarget=0;pointerEvents=0;fillColor=none;points=[[0,0.5],[1,0.5]];portConstraint=eastwest;top=0;left=0;right=0;bottom=0;" vertex="1" parent="EbTDLBitO4-8GcSiULzN-0">
          <mxGeometry y="90" width="250" height="30" as="geometry" />
        </mxCell>
        <mxCell id="EbTDLBitO4-8GcSiULzN-8" value="" style="shape=partialRectangle;overflow=hidden;connectable=0;fillColor=none;top=0;left=0;bottom=0;right=0;" vertex="1" parent="EbTDLBitO4-8GcSiULzN-7">
          <mxGeometry width="30" height="30" as="geometry" />
        </mxCell>
        <mxCell id="EbTDLBitO4-8GcSiULzN-9" value="LCRT int" style="shape=partialRectangle;overflow=hidden;connectable=0;fillColor=none;top=0;left=0;bottom=0;right=0;align=left;spacingLeft=6;" vertex="1" parent="EbTDLBitO4-8GcSiULzN-7">
          <mxGeometry x="30" width="220" height="30" as="geometry" />
        </mxCell>
        <mxCell id="EbTDLBitO4-8GcSiULzN-10" style="shape=partialRectangle;collapsible=0;dropTarget=0;pointerEvents=0;fillColor=none;points=[[0,0.5],[1,0.5]];portConstraint=eastwest;top=0;left=0;right=0;bottom=0;" vertex="1" parent="EbTDLBitO4-8GcSiULzN-0">
          <mxGeometry y="120" width="250" height="30" as="geometry" />
        </mxCell>
        <mxCell id="EbTDLBitO4-8GcSiULzN-11" style="shape=partialRectangle;overflow=hidden;connectable=0;fillColor=none;top=0;left=0;bottom=0;right=0;" vertex="1" parent="EbTDLBitO4-8GcSiULzN-10">
          <mxGeometry width="30" height="30" as="geometry" />
        </mxCell>
        <mxCell id="EbTDLBitO4-8GcSiULzN-12" value="LCRT_P15 float" style="shape=partialRectangle;overflow=hidden;connectable=0;fillColor=none;top=0;left=0;bottom=0;right=0;align=left;spacingLeft=6;strokeColor=#FF0000;fontColor=#FF0000;" vertex="1" parent="EbTDLBitO4-8GcSiULzN-10">
          <mxGeometry x="30" width="220" height="30" as="geometry" />
        </mxCell>
        <mxCell id="EbTDLBitO4-8GcSiULzN-13" style="shape=partialRectangle;collapsible=0;dropTarget=0;pointerEvents=0;fillColor=none;points=[[0,0.5],[1,0.5]];portConstraint=eastwest;top=0;left=0;right=0;bottom=0;" vertex="1" parent="EbTDLBitO4-8GcSiULzN-0">
          <mxGeometry y="150" width="250" height="30" as="geometry" />
        </mxCell>
        <mxCell id="EbTDLBitO4-8GcSiULzN-14" style="shape=partialRectangle;overflow=hidden;connectable=0;fillColor=none;top=0;left=0;bottom=0;right=0;" vertex="1" parent="EbTDLBitO4-8GcSiULzN-13">
          <mxGeometry width="30" height="30" as="geometry" />
        </mxCell>
        <mxCell id="EbTDLBitO4-8GcSiULzN-15" value="LCRT_H15 float" style="shape=partialRectangle;overflow=hidden;connectable=0;fillColor=none;top=0;left=0;bottom=0;right=0;align=left;spacingLeft=6;strokeColor=#FF0000;fontColor=#FF0000;" vertex="1" parent="EbTDLBitO4-8GcSiULzN-13">
          <mxGeometry x="30" width="220" height="30" as="geometry" />
        </mxCell>
        <mxCell id="EbTDLBitO4-8GcSiULzN-16" style="shape=partialRectangle;collapsible=0;dropTarget=0;pointerEvents=0;fillColor=none;points=[[0,0.5],[1,0.5]];portConstraint=eastwest;top=0;left=0;right=0;bottom=0;" vertex="1" parent="EbTDLBitO4-8GcSiULzN-0">
          <mxGeometry y="180" width="250" height="30" as="geometry" />
        </mxCell>
        <mxCell id="EbTDLBitO4-8GcSiULzN-17" style="shape=partialRectangle;overflow=hidden;connectable=0;fillColor=none;top=0;left=0;bottom=0;right=0;" vertex="1" parent="EbTDLBitO4-8GcSiULzN-16">
          <mxGeometry width="30" height="30" as="geometry" />
        </mxCell>
        <mxCell id="EbTDLBitO4-8GcSiULzN-18" value="LCRT_E15 float" style="shape=partialRectangle;overflow=hidden;connectable=0;fillColor=none;top=0;left=0;bottom=0;right=0;align=left;spacingLeft=6;strokeColor=#FF0000;fontColor=#FF0000;" vertex="1" parent="EbTDLBitO4-8GcSiULzN-16">
          <mxGeometry x="30" width="220" height="30" as="geometry" />
        </mxCell>
        <mxCell id="EbTDLBitO4-8GcSiULzN-19" style="shape=partialRectangle;collapsible=0;dropTarget=0;pointerEvents=0;fillColor=none;points=[[0,0.5],[1,0.5]];portConstraint=eastwest;top=0;left=0;right=0;bottom=0;" vertex="1" parent="EbTDLBitO4-8GcSiULzN-0">
          <mxGeometry y="210" width="250" height="30" as="geometry" />
        </mxCell>
        <mxCell id="EbTDLBitO4-8GcSiULzN-20" style="shape=partialRectangle;overflow=hidden;connectable=0;fillColor=none;top=0;left=0;bottom=0;right=0;" vertex="1" parent="EbTDLBitO4-8GcSiULzN-19">
          <mxGeometry width="30" height="30" as="geometry" />
        </mxCell>
        <mxCell id="EbTDLBitO4-8GcSiULzN-21" value="LCRT_P20 float" style="shape=partialRectangle;overflow=hidden;connectable=0;fillColor=none;top=0;left=0;bottom=0;right=0;align=left;spacingLeft=6;strokeColor=#FF0000;fontColor=#FF0000;" vertex="1" parent="EbTDLBitO4-8GcSiULzN-19">
          <mxGeometry x="30" width="220" height="30" as="geometry" />
        </mxCell>
        <mxCell id="EbTDLBitO4-8GcSiULzN-22" style="shape=partialRectangle;collapsible=0;dropTarget=0;pointerEvents=0;fillColor=none;points=[[0,0.5],[1,0.5]];portConstraint=eastwest;top=0;left=0;right=0;bottom=0;" vertex="1" parent="EbTDLBitO4-8GcSiULzN-0">
          <mxGeometry y="240" width="250" height="30" as="geometry" />
        </mxCell>
        <mxCell id="EbTDLBitO4-8GcSiULzN-23" style="shape=partialRectangle;overflow=hidden;connectable=0;fillColor=none;top=0;left=0;bottom=0;right=0;" vertex="1" parent="EbTDLBitO4-8GcSiULzN-22">
          <mxGeometry width="30" height="30" as="geometry" />
        </mxCell>
        <mxCell id="EbTDLBitO4-8GcSiULzN-24" value="LCRT_H20  float" style="shape=partialRectangle;overflow=hidden;connectable=0;fillColor=none;top=0;left=0;bottom=0;right=0;align=left;spacingLeft=6;strokeColor=#FF0000;fontColor=#FF0000;" vertex="1" parent="EbTDLBitO4-8GcSiULzN-22">
          <mxGeometry x="30" width="220" height="30" as="geometry" />
        </mxCell>
        <mxCell id="EbTDLBitO4-8GcSiULzN-25" style="shape=partialRectangle;collapsible=0;dropTarget=0;pointerEvents=0;fillColor=none;points=[[0,0.5],[1,0.5]];portConstraint=eastwest;top=0;left=0;right=0;bottom=0;" vertex="1" parent="EbTDLBitO4-8GcSiULzN-0">
          <mxGeometry y="270" width="250" height="30" as="geometry" />
        </mxCell>
        <mxCell id="EbTDLBitO4-8GcSiULzN-26" style="shape=partialRectangle;overflow=hidden;connectable=0;fillColor=none;top=0;left=0;bottom=0;right=0;" vertex="1" parent="EbTDLBitO4-8GcSiULzN-25">
          <mxGeometry width="30" height="30" as="geometry" />
        </mxCell>
        <mxCell id="EbTDLBitO4-8GcSiULzN-27" value="LCRT_E20 float" style="shape=partialRectangle;overflow=hidden;connectable=0;fillColor=none;top=0;left=0;bottom=0;right=0;align=left;spacingLeft=6;strokeColor=#FF0000;fontColor=#FF0000;" vertex="1" parent="EbTDLBitO4-8GcSiULzN-25">
          <mxGeometry x="30" width="220" height="30" as="geometry" />
        </mxCell>
        <mxCell id="EbTDLBitO4-8GcSiULzN-28" style="shape=partialRectangle;collapsible=0;dropTarget=0;pointerEvents=0;fillColor=none;points=[[0,0.5],[1,0.5]];portConstraint=eastwest;top=0;left=0;right=0;bottom=0;" vertex="1" parent="EbTDLBitO4-8GcSiULzN-0">
          <mxGeometry y="300" width="250" height="30" as="geometry" />
        </mxCell>
        <mxCell id="EbTDLBitO4-8GcSiULzN-29" style="shape=partialRectangle;overflow=hidden;connectable=0;fillColor=none;top=0;left=0;bottom=0;right=0;" vertex="1" parent="EbTDLBitO4-8GcSiULzN-28">
          <mxGeometry width="30" height="30" as="geometry" />
        </mxCell>
        <mxCell id="EbTDLBitO4-8GcSiULzN-30" value="LCRT_P30 float" style="shape=partialRectangle;overflow=hidden;connectable=0;fillColor=none;top=0;left=0;bottom=0;right=0;align=left;spacingLeft=6;strokeColor=#FF0000;fontColor=#FF0000;" vertex="1" parent="EbTDLBitO4-8GcSiULzN-28">
          <mxGeometry x="30" width="220" height="30" as="geometry" />
        </mxCell>
        <mxCell id="EbTDLBitO4-8GcSiULzN-31" style="shape=partialRectangle;collapsible=0;dropTarget=0;pointerEvents=0;fillColor=none;points=[[0,0.5],[1,0.5]];portConstraint=eastwest;top=0;left=0;right=0;bottom=0;" vertex="1" parent="EbTDLBitO4-8GcSiULzN-0">
          <mxGeometry y="330" width="250" height="30" as="geometry" />
        </mxCell>
        <mxCell id="EbTDLBitO4-8GcSiULzN-32" style="shape=partialRectangle;overflow=hidden;connectable=0;fillColor=none;top=0;left=0;bottom=0;right=0;" vertex="1" parent="EbTDLBitO4-8GcSiULzN-31">
          <mxGeometry width="30" height="30" as="geometry" />
        </mxCell>
        <mxCell id="EbTDLBitO4-8GcSiULzN-33" value="LCRT_H30 float" style="shape=partialRectangle;overflow=hidden;connectable=0;fillColor=none;top=0;left=0;bottom=0;right=0;align=left;spacingLeft=6;strokeColor=#FF0000;fontColor=#FF0000;" vertex="1" parent="EbTDLBitO4-8GcSiULzN-31">
          <mxGeometry x="30" width="220" height="30" as="geometry" />
        </mxCell>
        <mxCell id="EbTDLBitO4-8GcSiULzN-34" style="shape=partialRectangle;collapsible=0;dropTarget=0;pointerEvents=0;fillColor=none;points=[[0,0.5],[1,0.5]];portConstraint=eastwest;top=0;left=0;right=0;bottom=0;" vertex="1" parent="EbTDLBitO4-8GcSiULzN-0">
          <mxGeometry y="360" width="250" height="30" as="geometry" />
        </mxCell>
        <mxCell id="EbTDLBitO4-8GcSiULzN-35" style="shape=partialRectangle;overflow=hidden;connectable=0;fillColor=none;top=0;left=0;bottom=0;right=0;" vertex="1" parent="EbTDLBitO4-8GcSiULzN-34">
          <mxGeometry width="30" height="30" as="geometry" />
        </mxCell>
        <mxCell id="EbTDLBitO4-8GcSiULzN-36" value="LCRT_E30 float" style="shape=partialRectangle;overflow=hidden;connectable=0;fillColor=none;top=0;left=0;bottom=0;right=0;align=left;spacingLeft=6;strokeColor=#FF0000;fontColor=#FF0000;" vertex="1" parent="EbTDLBitO4-8GcSiULzN-34">
          <mxGeometry x="30" width="220" height="30" as="geometry" />
        </mxCell>
        <mxCell id="EbTDLBitO4-8GcSiULzN-37" style="shape=partialRectangle;collapsible=0;dropTarget=0;pointerEvents=0;fillColor=none;points=[[0,0.5],[1,0.5]];portConstraint=eastwest;top=0;left=0;right=0;bottom=0;" vertex="1" parent="EbTDLBitO4-8GcSiULzN-0">
          <mxGeometry y="390" width="250" height="30" as="geometry" />
        </mxCell>
        <mxCell id="EbTDLBitO4-8GcSiULzN-38" style="shape=partialRectangle;overflow=hidden;connectable=0;fillColor=none;top=0;left=0;bottom=0;right=0;" vertex="1" parent="EbTDLBitO4-8GcSiULzN-37">
          <mxGeometry width="30" height="30" as="geometry" />
        </mxCell>
        <mxCell id="EbTDLBitO4-8GcSiULzN-39" value="LCRT_P40 float" style="shape=partialRectangle;overflow=hidden;connectable=0;fillColor=none;top=0;left=0;bottom=0;right=0;align=left;spacingLeft=6;strokeColor=#FF0000;fontColor=#FF0000;" vertex="1" parent="EbTDLBitO4-8GcSiULzN-37">
          <mxGeometry x="30" width="220" height="30" as="geometry" />
        </mxCell>
        <mxCell id="EbTDLBitO4-8GcSiULzN-40" style="shape=partialRectangle;collapsible=0;dropTarget=0;pointerEvents=0;fillColor=none;points=[[0,0.5],[1,0.5]];portConstraint=eastwest;top=0;left=0;right=0;bottom=0;" vertex="1" parent="EbTDLBitO4-8GcSiULzN-0">
          <mxGeometry y="420" width="250" height="30" as="geometry" />
        </mxCell>
        <mxCell id="EbTDLBitO4-8GcSiULzN-41" style="shape=partialRectangle;overflow=hidden;connectable=0;fillColor=none;top=0;left=0;bottom=0;right=0;" vertex="1" parent="EbTDLBitO4-8GcSiULzN-40">
          <mxGeometry width="30" height="30" as="geometry" />
        </mxCell>
        <mxCell id="EbTDLBitO4-8GcSiULzN-42" value="LCRT_H40 float" style="shape=partialRectangle;overflow=hidden;connectable=0;fillColor=none;top=0;left=0;bottom=0;right=0;align=left;spacingLeft=6;strokeColor=#FF0000;fontColor=#FF0000;" vertex="1" parent="EbTDLBitO4-8GcSiULzN-40">
          <mxGeometry x="30" width="220" height="30" as="geometry" />
        </mxCell>
        <mxCell id="EbTDLBitO4-8GcSiULzN-43" style="shape=partialRectangle;collapsible=0;dropTarget=0;pointerEvents=0;fillColor=none;points=[[0,0.5],[1,0.5]];portConstraint=eastwest;top=0;left=0;right=0;bottom=0;" vertex="1" parent="EbTDLBitO4-8GcSiULzN-0">
          <mxGeometry y="450" width="250" height="30" as="geometry" />
        </mxCell>
        <mxCell id="EbTDLBitO4-8GcSiULzN-44" style="shape=partialRectangle;overflow=hidden;connectable=0;fillColor=none;top=0;left=0;bottom=0;right=0;" vertex="1" parent="EbTDLBitO4-8GcSiULzN-43">
          <mxGeometry width="30" height="30" as="geometry" />
        </mxCell>
        <mxCell id="EbTDLBitO4-8GcSiULzN-45" value="LCRT_E40 float" style="shape=partialRectangle;overflow=hidden;connectable=0;fillColor=none;top=0;left=0;bottom=0;right=0;align=left;spacingLeft=6;strokeColor=#FF0000;fontColor=#FF0000;" vertex="1" parent="EbTDLBitO4-8GcSiULzN-43">
          <mxGeometry x="30" width="220" height="30" as="geometry" />
        </mxCell>
        <mxCell id="WLKJ8dn2ChjDPFf2gVyL-0" value="" style="edgeStyle=elbowEdgeStyle;fontSize=12;html=1;endArrow=ERoneToMany;exitX=0;exitY=0.5;exitDx=0;exitDy=0;" edge="1" parent="d2Pd9lmMDD_tgMKhtwr2-1" source="EbTDLBitO4-8GcSiULzN-165" target="NzNRLXZzmgVNKe7Nmsyy-7">
          <mxGeometry width="100" height="100" relative="1" as="geometry">
            <mxPoint x="370" y="490" as="sourcePoint" />
            <mxPoint x="470" y="390" as="targetPoint" />
          </mxGeometry>
        </mxCell>
        <mxCell id="EbTDLBitO4-8GcSiULzN-49" value="corridor_segments_byTAZ" style="shape=table;startSize=30;container=1;collapsible=1;childLayout=tableLayout;fixedRows=1;rowLines=0;fontStyle=1;align=center;resizeLast=1;" vertex="1" parent="d2Pd9lmMDD_tgMKhtwr2-1">
          <mxGeometry x="490" y="25" width="300" height="940" as="geometry">
            <mxRectangle x="120" y="120" width="160" height="30" as="alternateBounds" />
          </mxGeometry>
        </mxCell>
        <mxCell id="EbTDLBitO4-8GcSiULzN-50" value="" style="shape=partialRectangle;collapsible=0;dropTarget=0;pointerEvents=0;fillColor=none;points=[[0,0.5],[1,0.5]];portConstraint=eastwest;top=0;left=0;right=0;bottom=1;" vertex="1" parent="EbTDLBitO4-8GcSiULzN-49">
          <mxGeometry y="30" width="300" height="30" as="geometry" />
        </mxCell>
        <mxCell id="EbTDLBitO4-8GcSiULzN-51" value="PK" style="shape=partialRectangle;overflow=hidden;connectable=0;fillColor=none;top=0;left=0;bottom=0;right=0;fontStyle=1;" vertex="1" parent="EbTDLBitO4-8GcSiULzN-50">
          <mxGeometry width="30" height="30" as="geometry" />
        </mxCell>
        <mxCell id="EbTDLBitO4-8GcSiULzN-52" value="OBJECTID int NOT NULL " style="shape=partialRectangle;overflow=hidden;connectable=0;fillColor=none;top=0;left=0;bottom=0;right=0;align=left;spacingLeft=6;fontStyle=5;" vertex="1" parent="EbTDLBitO4-8GcSiULzN-50">
          <mxGeometry x="30" width="270" height="30" as="geometry" />
        </mxCell>
        <mxCell id="EbTDLBitO4-8GcSiULzN-53" style="shape=partialRectangle;collapsible=0;dropTarget=0;pointerEvents=0;fillColor=none;points=[[0,0.5],[1,0.5]];portConstraint=eastwest;top=0;left=0;right=0;bottom=0;" vertex="1" parent="EbTDLBitO4-8GcSiULzN-49">
          <mxGeometry y="60" width="300" height="30" as="geometry" />
        </mxCell>
        <mxCell id="EbTDLBitO4-8GcSiULzN-54" style="shape=partialRectangle;overflow=hidden;connectable=0;fillColor=none;top=0;left=0;bottom=0;right=0;" vertex="1" parent="EbTDLBitO4-8GcSiULzN-53">
          <mxGeometry width="30" height="30" as="geometry" />
        </mxCell>
        <mxCell id="EbTDLBitO4-8GcSiULzN-55" value="Shape geometry NOT NULL" style="shape=partialRectangle;overflow=hidden;connectable=0;fillColor=none;top=0;left=0;bottom=0;right=0;align=left;spacingLeft=6;" vertex="1" parent="EbTDLBitO4-8GcSiULzN-53">
          <mxGeometry x="30" width="270" height="30" as="geometry" />
        </mxCell>
        <mxCell id="EbTDLBitO4-8GcSiULzN-56" value="" style="shape=partialRectangle;collapsible=0;dropTarget=0;pointerEvents=0;fillColor=none;points=[[0,0.5],[1,0.5]];portConstraint=eastwest;top=0;left=0;right=0;bottom=0;" vertex="1" parent="EbTDLBitO4-8GcSiULzN-49">
          <mxGeometry y="90" width="300" height="30" as="geometry" />
        </mxCell>
        <mxCell id="EbTDLBitO4-8GcSiULzN-57" value="" style="shape=partialRectangle;overflow=hidden;connectable=0;fillColor=none;top=0;left=0;bottom=0;right=0;" vertex="1" parent="EbTDLBitO4-8GcSiULzN-56">
          <mxGeometry width="30" height="30" as="geometry" />
        </mxCell>
        <mxCell id="EbTDLBitO4-8GcSiULzN-58" value="ID int [TAZ id number]" style="shape=partialRectangle;overflow=hidden;connectable=0;fillColor=none;top=0;left=0;bottom=0;right=0;align=left;spacingLeft=6;" vertex="1" parent="EbTDLBitO4-8GcSiULzN-56">
          <mxGeometry x="30" width="270" height="30" as="geometry" />
        </mxCell>
        <mxCell id="EbTDLBitO4-8GcSiULzN-59" style="shape=partialRectangle;collapsible=0;dropTarget=0;pointerEvents=0;fillColor=none;points=[[0,0.5],[1,0.5]];portConstraint=eastwest;top=0;left=0;right=0;bottom=0;" vertex="1" parent="EbTDLBitO4-8GcSiULzN-49">
          <mxGeometry y="120" width="300" height="30" as="geometry" />
        </mxCell>
        <mxCell id="EbTDLBitO4-8GcSiULzN-60" style="shape=partialRectangle;overflow=hidden;connectable=0;fillColor=none;top=0;left=0;bottom=0;right=0;" vertex="1" parent="EbTDLBitO4-8GcSiULzN-59">
          <mxGeometry width="30" height="30" as="geometry" />
        </mxCell>
        <mxCell id="EbTDLBitO4-8GcSiULzN-61" value="AREA float [units unclear]" style="shape=partialRectangle;overflow=hidden;connectable=0;fillColor=none;top=0;left=0;bottom=0;right=0;align=left;spacingLeft=6;fontColor=#FF0000;" vertex="1" parent="EbTDLBitO4-8GcSiULzN-59">
          <mxGeometry x="30" width="270" height="30" as="geometry" />
        </mxCell>
        <mxCell id="EbTDLBitO4-8GcSiULzN-62" style="shape=partialRectangle;collapsible=0;dropTarget=0;pointerEvents=0;fillColor=none;points=[[0,0.5],[1,0.5]];portConstraint=eastwest;top=0;left=0;right=0;bottom=0;" vertex="1" parent="EbTDLBitO4-8GcSiULzN-49">
          <mxGeometry y="150" width="300" height="30" as="geometry" />
        </mxCell>
        <mxCell id="EbTDLBitO4-8GcSiULzN-63" style="shape=partialRectangle;overflow=hidden;connectable=0;fillColor=none;top=0;left=0;bottom=0;right=0;" vertex="1" parent="EbTDLBitO4-8GcSiULzN-62">
          <mxGeometry width="30" height="30" as="geometry" />
        </mxCell>
        <mxCell id="EbTDLBitO4-8GcSiULzN-64" value="COUNTYID int [5-digit FIPS]" style="shape=partialRectangle;overflow=hidden;connectable=0;fillColor=none;top=0;left=0;bottom=0;right=0;align=left;spacingLeft=6;" vertex="1" parent="EbTDLBitO4-8GcSiULzN-62">
          <mxGeometry x="30" width="270" height="30" as="geometry" />
        </mxCell>
        <mxCell id="EbTDLBitO4-8GcSiULzN-65" style="shape=partialRectangle;collapsible=0;dropTarget=0;pointerEvents=0;fillColor=none;points=[[0,0.5],[1,0.5]];portConstraint=eastwest;top=0;left=0;right=0;bottom=0;" vertex="1" parent="EbTDLBitO4-8GcSiULzN-49">
          <mxGeometry y="180" width="300" height="30" as="geometry" />
        </mxCell>
        <mxCell id="EbTDLBitO4-8GcSiULzN-66" style="shape=partialRectangle;overflow=hidden;connectable=0;fillColor=none;top=0;left=0;bottom=0;right=0;" vertex="1" parent="EbTDLBitO4-8GcSiULzN-65">
          <mxGeometry width="30" height="30" as="geometry" />
        </mxCell>
        <mxCell id="EbTDLBitO4-8GcSiULzN-67" value="COUNTY char(20)" style="shape=partialRectangle;overflow=hidden;connectable=0;fillColor=none;top=0;left=0;bottom=0;right=0;align=left;spacingLeft=6;" vertex="1" parent="EbTDLBitO4-8GcSiULzN-65">
          <mxGeometry x="30" width="270" height="30" as="geometry" />
        </mxCell>
        <mxCell id="EbTDLBitO4-8GcSiULzN-68" style="shape=partialRectangle;collapsible=0;dropTarget=0;pointerEvents=0;fillColor=none;points=[[0,0.5],[1,0.5]];portConstraint=eastwest;top=0;left=0;right=0;bottom=0;" vertex="1" parent="EbTDLBitO4-8GcSiULzN-49">
          <mxGeometry y="210" width="300" height="30" as="geometry" />
        </mxCell>
        <mxCell id="EbTDLBitO4-8GcSiULzN-69" style="shape=partialRectangle;overflow=hidden;connectable=0;fillColor=none;top=0;left=0;bottom=0;right=0;" vertex="1" parent="EbTDLBitO4-8GcSiULzN-68">
          <mxGeometry width="30" height="30" as="geometry" />
        </mxCell>
        <mxCell id="EbTDLBitO4-8GcSiULzN-70" value="DISTRICT int" style="shape=partialRectangle;overflow=hidden;connectable=0;fillColor=none;top=0;left=0;bottom=0;right=0;align=left;spacingLeft=6;" vertex="1" parent="EbTDLBitO4-8GcSiULzN-68">
          <mxGeometry x="30" width="270" height="30" as="geometry" />
        </mxCell>
        <mxCell id="EbTDLBitO4-8GcSiULzN-71" style="shape=partialRectangle;collapsible=0;dropTarget=0;pointerEvents=0;fillColor=none;points=[[0,0.5],[1,0.5]];portConstraint=eastwest;top=0;left=0;right=0;bottom=0;" vertex="1" parent="EbTDLBitO4-8GcSiULzN-49">
          <mxGeometry y="240" width="300" height="30" as="geometry" />
        </mxCell>
        <mxCell id="EbTDLBitO4-8GcSiULzN-72" style="shape=partialRectangle;overflow=hidden;connectable=0;fillColor=none;top=0;left=0;bottom=0;right=0;" vertex="1" parent="EbTDLBitO4-8GcSiULzN-71">
          <mxGeometry width="30" height="30" as="geometry" />
        </mxCell>
        <mxCell id="EbTDLBitO4-8GcSiULzN-73" value="DISTRICT_L char(20)" style="shape=partialRectangle;overflow=hidden;connectable=0;fillColor=none;top=0;left=0;bottom=0;right=0;align=left;spacingLeft=6;" vertex="1" parent="EbTDLBitO4-8GcSiULzN-71">
          <mxGeometry x="30" width="270" height="30" as="geometry" />
        </mxCell>
        <mxCell id="EbTDLBitO4-8GcSiULzN-74" style="shape=partialRectangle;collapsible=0;dropTarget=0;pointerEvents=0;fillColor=none;points=[[0,0.5],[1,0.5]];portConstraint=eastwest;top=0;left=0;right=0;bottom=0;" vertex="1" parent="EbTDLBitO4-8GcSiULzN-49">
          <mxGeometry y="270" width="300" height="30" as="geometry" />
        </mxCell>
        <mxCell id="EbTDLBitO4-8GcSiULzN-75" style="shape=partialRectangle;overflow=hidden;connectable=0;fillColor=none;top=0;left=0;bottom=0;right=0;" vertex="1" parent="EbTDLBitO4-8GcSiULzN-74">
          <mxGeometry width="30" height="30" as="geometry" />
        </mxCell>
        <mxCell id="EbTDLBitO4-8GcSiULzN-76" value="KEY_LANDMA char(25)" style="shape=partialRectangle;overflow=hidden;connectable=0;fillColor=none;top=0;left=0;bottom=0;right=0;align=left;spacingLeft=6;" vertex="1" parent="EbTDLBitO4-8GcSiULzN-74">
          <mxGeometry x="30" width="270" height="30" as="geometry" />
        </mxCell>
        <mxCell id="EbTDLBitO4-8GcSiULzN-77" style="shape=partialRectangle;collapsible=0;dropTarget=0;pointerEvents=0;fillColor=none;points=[[0,0.5],[1,0.5]];portConstraint=eastwest;top=0;left=0;right=0;bottom=0;" vertex="1" parent="EbTDLBitO4-8GcSiULzN-49">
          <mxGeometry y="300" width="300" height="30" as="geometry" />
        </mxCell>
        <mxCell id="EbTDLBitO4-8GcSiULzN-78" style="shape=partialRectangle;overflow=hidden;connectable=0;fillColor=none;top=0;left=0;bottom=0;right=0;" vertex="1" parent="EbTDLBitO4-8GcSiULzN-77">
          <mxGeometry width="30" height="30" as="geometry" />
        </mxCell>
        <mxCell id="EbTDLBitO4-8GcSiULzN-79" value="IDText char(50) [TAZ id number as str]" style="shape=partialRectangle;overflow=hidden;connectable=0;fillColor=none;top=0;left=0;bottom=0;right=0;align=left;spacingLeft=6;" vertex="1" parent="EbTDLBitO4-8GcSiULzN-77">
          <mxGeometry x="30" width="270" height="30" as="geometry" />
        </mxCell>
        <mxCell id="EbTDLBitO4-8GcSiULzN-80" style="shape=partialRectangle;collapsible=0;dropTarget=0;pointerEvents=0;fillColor=none;points=[[0,0.5],[1,0.5]];portConstraint=eastwest;top=0;left=0;right=0;bottom=0;" vertex="1" parent="EbTDLBitO4-8GcSiULzN-49">
          <mxGeometry y="330" width="300" height="30" as="geometry" />
        </mxCell>
        <mxCell id="EbTDLBitO4-8GcSiULzN-81" style="shape=partialRectangle;overflow=hidden;connectable=0;fillColor=none;top=0;left=0;bottom=0;right=0;" vertex="1" parent="EbTDLBitO4-8GcSiULzN-80">
          <mxGeometry width="30" height="30" as="geometry" />
        </mxCell>
        <mxCell id="EbTDLBitO4-8GcSiULzN-82" value="Big_TAZ int" style="shape=partialRectangle;overflow=hidden;connectable=0;fillColor=none;top=0;left=0;bottom=0;right=0;align=left;spacingLeft=6;" vertex="1" parent="EbTDLBitO4-8GcSiULzN-80">
          <mxGeometry x="30" width="270" height="30" as="geometry" />
        </mxCell>
        <mxCell id="EbTDLBitO4-8GcSiULzN-83" style="shape=partialRectangle;collapsible=0;dropTarget=0;pointerEvents=0;fillColor=none;points=[[0,0.5],[1,0.5]];portConstraint=eastwest;top=0;left=0;right=0;bottom=0;" vertex="1" parent="EbTDLBitO4-8GcSiULzN-49">
          <mxGeometry y="360" width="300" height="30" as="geometry" />
        </mxCell>
        <mxCell id="EbTDLBitO4-8GcSiULzN-84" style="shape=partialRectangle;overflow=hidden;connectable=0;fillColor=none;top=0;left=0;bottom=0;right=0;" vertex="1" parent="EbTDLBitO4-8GcSiULzN-83">
          <mxGeometry width="30" height="30" as="geometry" />
        </mxCell>
        <mxCell id="EbTDLBitO4-8GcSiULzN-85" value="TOTPOP15 int [population in 2015]" style="shape=partialRectangle;overflow=hidden;connectable=0;fillColor=none;top=0;left=0;bottom=0;right=0;align=left;spacingLeft=6;" vertex="1" parent="EbTDLBitO4-8GcSiULzN-83">
          <mxGeometry x="30" width="270" height="30" as="geometry" />
        </mxCell>
        <mxCell id="EbTDLBitO4-8GcSiULzN-86" style="shape=partialRectangle;collapsible=0;dropTarget=0;pointerEvents=0;fillColor=none;points=[[0,0.5],[1,0.5]];portConstraint=eastwest;top=0;left=0;right=0;bottom=0;" vertex="1" parent="EbTDLBitO4-8GcSiULzN-49">
          <mxGeometry y="390" width="300" height="30" as="geometry" />
        </mxCell>
        <mxCell id="EbTDLBitO4-8GcSiULzN-87" style="shape=partialRectangle;overflow=hidden;connectable=0;fillColor=none;top=0;left=0;bottom=0;right=0;" vertex="1" parent="EbTDLBitO4-8GcSiULzN-86">
          <mxGeometry width="30" height="30" as="geometry" />
        </mxCell>
        <mxCell id="EbTDLBitO4-8GcSiULzN-88" value="HHPOP15 int [household pop in 2015]" style="shape=partialRectangle;overflow=hidden;connectable=0;fillColor=none;top=0;left=0;bottom=0;right=0;align=left;spacingLeft=6;" vertex="1" parent="EbTDLBitO4-8GcSiULzN-86">
          <mxGeometry x="30" width="270" height="30" as="geometry" />
        </mxCell>
        <mxCell id="EbTDLBitO4-8GcSiULzN-89" style="shape=partialRectangle;collapsible=0;dropTarget=0;pointerEvents=0;fillColor=none;points=[[0,0.5],[1,0.5]];portConstraint=eastwest;top=0;left=0;right=0;bottom=0;" vertex="1" parent="EbTDLBitO4-8GcSiULzN-49">
          <mxGeometry y="420" width="300" height="30" as="geometry" />
        </mxCell>
        <mxCell id="EbTDLBitO4-8GcSiULzN-90" style="shape=partialRectangle;overflow=hidden;connectable=0;fillColor=none;top=0;left=0;bottom=0;right=0;" vertex="1" parent="EbTDLBitO4-8GcSiULzN-89">
          <mxGeometry width="30" height="30" as="geometry" />
        </mxCell>
        <mxCell id="EbTDLBitO4-8GcSiULzN-91" value="GQPOP15 int [group quarters pop in 2015]" style="shape=partialRectangle;overflow=hidden;connectable=0;fillColor=none;top=0;left=0;bottom=0;right=0;align=left;spacingLeft=6;" vertex="1" parent="EbTDLBitO4-8GcSiULzN-89">
          <mxGeometry x="30" width="270" height="30" as="geometry" />
        </mxCell>
        <mxCell id="EbTDLBitO4-8GcSiULzN-92" style="shape=partialRectangle;collapsible=0;dropTarget=0;pointerEvents=0;fillColor=none;points=[[0,0.5],[1,0.5]];portConstraint=eastwest;top=0;left=0;right=0;bottom=0;" vertex="1" parent="EbTDLBitO4-8GcSiULzN-49">
          <mxGeometry y="450" width="300" height="30" as="geometry" />
        </mxCell>
        <mxCell id="EbTDLBitO4-8GcSiULzN-93" style="shape=partialRectangle;overflow=hidden;connectable=0;fillColor=none;top=0;left=0;bottom=0;right=0;" vertex="1" parent="EbTDLBitO4-8GcSiULzN-92">
          <mxGeometry width="30" height="30" as="geometry" />
        </mxCell>
        <mxCell id="EbTDLBitO4-8GcSiULzN-94" value="HH15 int [households in 2015]" style="shape=partialRectangle;overflow=hidden;connectable=0;fillColor=none;top=0;left=0;bottom=0;right=0;align=left;spacingLeft=6;" vertex="1" parent="EbTDLBitO4-8GcSiULzN-92">
          <mxGeometry x="30" width="270" height="30" as="geometry" />
        </mxCell>
        <mxCell id="EbTDLBitO4-8GcSiULzN-131" style="shape=partialRectangle;collapsible=0;dropTarget=0;pointerEvents=0;fillColor=none;points=[[0,0.5],[1,0.5]];portConstraint=eastwest;top=0;left=0;right=0;bottom=0;" vertex="1" parent="EbTDLBitO4-8GcSiULzN-49">
          <mxGeometry y="480" width="300" height="30" as="geometry" />
        </mxCell>
        <mxCell id="EbTDLBitO4-8GcSiULzN-132" style="shape=partialRectangle;overflow=hidden;connectable=0;fillColor=none;top=0;left=0;bottom=0;right=0;" vertex="1" parent="EbTDLBitO4-8GcSiULzN-131">
          <mxGeometry width="30" height="30" as="geometry" />
        </mxCell>
        <mxCell id="EbTDLBitO4-8GcSiULzN-133" value="UNIVSTD int [university students in 2015]" style="shape=partialRectangle;overflow=hidden;connectable=0;fillColor=none;top=0;left=0;bottom=0;right=0;align=left;spacingLeft=6;" vertex="1" parent="EbTDLBitO4-8GcSiULzN-131">
          <mxGeometry x="30" width="270" height="30" as="geometry" />
        </mxCell>
        <mxCell id="EbTDLBitO4-8GcSiULzN-128" style="shape=partialRectangle;collapsible=0;dropTarget=0;pointerEvents=0;fillColor=none;points=[[0,0.5],[1,0.5]];portConstraint=eastwest;top=0;left=0;right=0;bottom=0;" vertex="1" parent="EbTDLBitO4-8GcSiULzN-49">
          <mxGeometry y="510" width="300" height="30" as="geometry" />
        </mxCell>
        <mxCell id="EbTDLBitO4-8GcSiULzN-129" style="shape=partialRectangle;overflow=hidden;connectable=0;fillColor=none;top=0;left=0;bottom=0;right=0;" vertex="1" parent="EbTDLBitO4-8GcSiULzN-128">
          <mxGeometry width="30" height="30" as="geometry" />
        </mxCell>
        <mxCell id="EbTDLBitO4-8GcSiULzN-130" value="K12ENR int [school enrollment (K-12) in 2015]" style="shape=partialRectangle;overflow=hidden;connectable=0;fillColor=none;top=0;left=0;bottom=0;right=0;align=left;spacingLeft=6;" vertex="1" parent="EbTDLBitO4-8GcSiULzN-128">
          <mxGeometry x="30" width="270" height="30" as="geometry" />
        </mxCell>
        <mxCell id="EbTDLBitO4-8GcSiULzN-125" style="shape=partialRectangle;collapsible=0;dropTarget=0;pointerEvents=0;fillColor=none;points=[[0,0.5],[1,0.5]];portConstraint=eastwest;top=0;left=0;right=0;bottom=0;" vertex="1" parent="EbTDLBitO4-8GcSiULzN-49">
          <mxGeometry y="540" width="300" height="30" as="geometry" />
        </mxCell>
        <mxCell id="EbTDLBitO4-8GcSiULzN-126" style="shape=partialRectangle;overflow=hidden;connectable=0;fillColor=none;top=0;left=0;bottom=0;right=0;" vertex="1" parent="EbTDLBitO4-8GcSiULzN-125">
          <mxGeometry width="30" height="30" as="geometry" />
        </mxCell>
        <mxCell id="EbTDLBitO4-8GcSiULzN-127" value="UNVENR int [university enrollment in 2015]" style="shape=partialRectangle;overflow=hidden;connectable=0;fillColor=none;top=0;left=0;bottom=0;right=0;align=left;spacingLeft=6;" vertex="1" parent="EbTDLBitO4-8GcSiULzN-125">
          <mxGeometry x="30" width="270" height="30" as="geometry" />
        </mxCell>
        <mxCell id="EbTDLBitO4-8GcSiULzN-122" style="shape=partialRectangle;collapsible=0;dropTarget=0;pointerEvents=0;fillColor=none;points=[[0,0.5],[1,0.5]];portConstraint=eastwest;top=0;left=0;right=0;bottom=0;" vertex="1" parent="EbTDLBitO4-8GcSiULzN-49">
          <mxGeometry y="570" width="300" height="30" as="geometry" />
        </mxCell>
        <mxCell id="EbTDLBitO4-8GcSiULzN-123" style="shape=partialRectangle;overflow=hidden;connectable=0;fillColor=none;top=0;left=0;bottom=0;right=0;" vertex="1" parent="EbTDLBitO4-8GcSiULzN-122">
          <mxGeometry width="30" height="30" as="geometry" />
        </mxCell>
        <mxCell id="EbTDLBitO4-8GcSiULzN-124" value="EMPXX int [employment in NAICS XX in 2015]" style="shape=partialRectangle;overflow=hidden;connectable=0;fillColor=none;top=0;left=0;bottom=0;right=0;align=left;spacingLeft=6;" vertex="1" parent="EbTDLBitO4-8GcSiULzN-122">
          <mxGeometry x="30" width="270" height="30" as="geometry" />
        </mxCell>
        <mxCell id="EbTDLBitO4-8GcSiULzN-119" style="shape=partialRectangle;collapsible=0;dropTarget=0;pointerEvents=0;fillColor=none;points=[[0,0.5],[1,0.5]];portConstraint=eastwest;top=0;left=0;right=0;bottom=0;" vertex="1" parent="EbTDLBitO4-8GcSiULzN-49">
          <mxGeometry y="600" width="300" height="30" as="geometry" />
        </mxCell>
        <mxCell id="EbTDLBitO4-8GcSiULzN-120" style="shape=partialRectangle;overflow=hidden;connectable=0;fillColor=none;top=0;left=0;bottom=0;right=0;" vertex="1" parent="EbTDLBitO4-8GcSiULzN-119">
          <mxGeometry width="30" height="30" as="geometry" />
        </mxCell>
        <mxCell id="EbTDLBitO4-8GcSiULzN-121" value="TOTEMP15 int [total employment in 2015]" style="shape=partialRectangle;overflow=hidden;connectable=0;fillColor=none;top=0;left=0;bottom=0;right=0;align=left;spacingLeft=6;" vertex="1" parent="EbTDLBitO4-8GcSiULzN-119">
          <mxGeometry x="30" width="270" height="30" as="geometry" />
        </mxCell>
        <mxCell id="EbTDLBitO4-8GcSiULzN-140" style="shape=partialRectangle;collapsible=0;dropTarget=0;pointerEvents=0;fillColor=none;points=[[0,0.5],[1,0.5]];portConstraint=eastwest;top=0;left=0;right=0;bottom=0;" vertex="1" parent="EbTDLBitO4-8GcSiULzN-49">
          <mxGeometry y="630" width="300" height="30" as="geometry" />
        </mxCell>
        <mxCell id="EbTDLBitO4-8GcSiULzN-141" style="shape=partialRectangle;overflow=hidden;connectable=0;fillColor=none;top=0;left=0;bottom=0;right=0;" vertex="1" parent="EbTDLBitO4-8GcSiULzN-140">
          <mxGeometry width="30" height="30" as="geometry" />
        </mxCell>
        <mxCell id="EbTDLBitO4-8GcSiULzN-142" value="TOTPOP20 int [population in 2020]" style="shape=partialRectangle;overflow=hidden;connectable=0;fillColor=none;top=0;left=0;bottom=0;right=0;align=left;spacingLeft=6;" vertex="1" parent="EbTDLBitO4-8GcSiULzN-140">
          <mxGeometry x="30" width="270" height="30" as="geometry" />
        </mxCell>
        <mxCell id="EbTDLBitO4-8GcSiULzN-137" style="shape=partialRectangle;collapsible=0;dropTarget=0;pointerEvents=0;fillColor=none;points=[[0,0.5],[1,0.5]];portConstraint=eastwest;top=0;left=0;right=0;bottom=0;" vertex="1" parent="EbTDLBitO4-8GcSiULzN-49">
          <mxGeometry y="660" width="300" height="30" as="geometry" />
        </mxCell>
        <mxCell id="EbTDLBitO4-8GcSiULzN-138" style="shape=partialRectangle;overflow=hidden;connectable=0;fillColor=none;top=0;left=0;bottom=0;right=0;" vertex="1" parent="EbTDLBitO4-8GcSiULzN-137">
          <mxGeometry width="30" height="30" as="geometry" />
        </mxCell>
        <mxCell id="EbTDLBitO4-8GcSiULzN-139" value="HHPOP20 int [household population in 2020]" style="shape=partialRectangle;overflow=hidden;connectable=0;fillColor=none;top=0;left=0;bottom=0;right=0;align=left;spacingLeft=6;" vertex="1" parent="EbTDLBitO4-8GcSiULzN-137">
          <mxGeometry x="30" width="270" height="30" as="geometry" />
        </mxCell>
        <mxCell id="EbTDLBitO4-8GcSiULzN-134" style="shape=partialRectangle;collapsible=0;dropTarget=0;pointerEvents=0;fillColor=none;points=[[0,0.5],[1,0.5]];portConstraint=eastwest;top=0;left=0;right=0;bottom=0;" vertex="1" parent="EbTDLBitO4-8GcSiULzN-49">
          <mxGeometry y="690" width="300" height="30" as="geometry" />
        </mxCell>
        <mxCell id="EbTDLBitO4-8GcSiULzN-135" style="shape=partialRectangle;overflow=hidden;connectable=0;fillColor=none;top=0;left=0;bottom=0;right=0;" vertex="1" parent="EbTDLBitO4-8GcSiULzN-134">
          <mxGeometry width="30" height="30" as="geometry" />
        </mxCell>
        <mxCell id="EbTDLBitO4-8GcSiULzN-136" value="GQPOP20 int [group quarters pop in 2020]" style="shape=partialRectangle;overflow=hidden;connectable=0;fillColor=none;top=0;left=0;bottom=0;right=0;align=left;spacingLeft=6;" vertex="1" parent="EbTDLBitO4-8GcSiULzN-134">
          <mxGeometry x="30" width="270" height="30" as="geometry" />
        </mxCell>
        <mxCell id="EbTDLBitO4-8GcSiULzN-146" style="shape=partialRectangle;collapsible=0;dropTarget=0;pointerEvents=0;fillColor=none;points=[[0,0.5],[1,0.5]];portConstraint=eastwest;top=0;left=0;right=0;bottom=0;" vertex="1" parent="EbTDLBitO4-8GcSiULzN-49">
          <mxGeometry y="720" width="300" height="30" as="geometry" />
        </mxCell>
        <mxCell id="EbTDLBitO4-8GcSiULzN-147" style="shape=partialRectangle;overflow=hidden;connectable=0;fillColor=none;top=0;left=0;bottom=0;right=0;" vertex="1" parent="EbTDLBitO4-8GcSiULzN-146">
          <mxGeometry width="30" height="30" as="geometry" />
        </mxCell>
        <mxCell id="EbTDLBitO4-8GcSiULzN-148" value="TOTEMP20 int [total employment in 2020]" style="shape=partialRectangle;overflow=hidden;connectable=0;fillColor=none;top=0;left=0;bottom=0;right=0;align=left;spacingLeft=6;" vertex="1" parent="EbTDLBitO4-8GcSiULzN-146">
          <mxGeometry x="30" width="270" height="30" as="geometry" />
        </mxCell>
        <mxCell id="EbTDLBitO4-8GcSiULzN-143" style="shape=partialRectangle;collapsible=0;dropTarget=0;pointerEvents=0;fillColor=none;points=[[0,0.5],[1,0.5]];portConstraint=eastwest;top=0;left=0;right=0;bottom=0;" vertex="1" parent="EbTDLBitO4-8GcSiULzN-49">
          <mxGeometry y="750" width="300" height="30" as="geometry" />
        </mxCell>
        <mxCell id="EbTDLBitO4-8GcSiULzN-144" style="shape=partialRectangle;overflow=hidden;connectable=0;fillColor=none;top=0;left=0;bottom=0;right=0;" vertex="1" parent="EbTDLBitO4-8GcSiULzN-143">
          <mxGeometry width="30" height="30" as="geometry" />
        </mxCell>
        <mxCell id="EbTDLBitO4-8GcSiULzN-145" value="...30 [same as 2020 fields, but for 2030]" style="shape=partialRectangle;overflow=hidden;connectable=0;fillColor=none;top=0;left=0;bottom=0;right=0;align=left;spacingLeft=6;fontStyle=2" vertex="1" parent="EbTDLBitO4-8GcSiULzN-143">
          <mxGeometry x="30" width="270" height="30" as="geometry" />
        </mxCell>
        <mxCell id="EbTDLBitO4-8GcSiULzN-152" style="shape=partialRectangle;collapsible=0;dropTarget=0;pointerEvents=0;fillColor=none;points=[[0,0.5],[1,0.5]];portConstraint=eastwest;top=0;left=0;right=0;bottom=0;" vertex="1" parent="EbTDLBitO4-8GcSiULzN-49">
          <mxGeometry y="780" width="300" height="30" as="geometry" />
        </mxCell>
        <mxCell id="EbTDLBitO4-8GcSiULzN-153" style="shape=partialRectangle;overflow=hidden;connectable=0;fillColor=none;top=0;left=0;bottom=0;right=0;" vertex="1" parent="EbTDLBitO4-8GcSiULzN-152">
          <mxGeometry width="30" height="30" as="geometry" />
        </mxCell>
        <mxCell id="EbTDLBitO4-8GcSiULzN-154" value="...40 [same as 2020 fields, but for 2040" style="shape=partialRectangle;overflow=hidden;connectable=0;fillColor=none;top=0;left=0;bottom=0;right=0;align=left;spacingLeft=6;fontStyle=2" vertex="1" parent="EbTDLBitO4-8GcSiULzN-152">
          <mxGeometry x="30" width="270" height="30" as="geometry" />
        </mxCell>
        <mxCell id="EbTDLBitO4-8GcSiULzN-149" style="shape=partialRectangle;collapsible=0;dropTarget=0;pointerEvents=0;fillColor=none;points=[[0,0.5],[1,0.5]];portConstraint=eastwest;top=0;left=0;right=0;bottom=0;" vertex="1" parent="EbTDLBitO4-8GcSiULzN-49">
          <mxGeometry y="810" width="300" height="30" as="geometry" />
        </mxCell>
        <mxCell id="EbTDLBitO4-8GcSiULzN-150" style="shape=partialRectangle;overflow=hidden;connectable=0;fillColor=none;top=0;left=0;bottom=0;right=0;" vertex="1" parent="EbTDLBitO4-8GcSiULzN-149">
          <mxGeometry width="30" height="30" as="geometry" />
        </mxCell>
        <mxCell id="EbTDLBitO4-8GcSiULzN-151" value="Echg int [Employment change (what years?)]" style="shape=partialRectangle;overflow=hidden;connectable=0;fillColor=none;top=0;left=0;bottom=0;right=0;align=left;spacingLeft=6;fontColor=#FF0000;" vertex="1" parent="EbTDLBitO4-8GcSiULzN-149">
          <mxGeometry x="30" width="270" height="30" as="geometry" />
        </mxCell>
        <mxCell id="EbTDLBitO4-8GcSiULzN-159" style="shape=partialRectangle;collapsible=0;dropTarget=0;pointerEvents=0;fillColor=none;points=[[0,0.5],[1,0.5]];portConstraint=eastwest;top=0;left=0;right=0;bottom=0;" vertex="1" parent="EbTDLBitO4-8GcSiULzN-49">
          <mxGeometry y="840" width="300" height="30" as="geometry" />
        </mxCell>
        <mxCell id="EbTDLBitO4-8GcSiULzN-160" style="shape=partialRectangle;overflow=hidden;connectable=0;fillColor=none;top=0;left=0;bottom=0;right=0;" vertex="1" parent="EbTDLBitO4-8GcSiULzN-159">
          <mxGeometry width="30" height="30" as="geometry" />
        </mxCell>
        <mxCell id="EbTDLBitO4-8GcSiULzN-161" value="HHchge (households change (what years?)]" style="shape=partialRectangle;overflow=hidden;connectable=0;fillColor=none;top=0;left=0;bottom=0;right=0;align=left;spacingLeft=6;fontColor=#FF0000;" vertex="1" parent="EbTDLBitO4-8GcSiULzN-159">
          <mxGeometry x="30" width="270" height="30" as="geometry" />
        </mxCell>
        <mxCell id="EbTDLBitO4-8GcSiULzN-165" style="shape=partialRectangle;collapsible=0;dropTarget=0;pointerEvents=0;fillColor=none;points=[[0,0.5],[1,0.5]];portConstraint=eastwest;top=0;left=0;right=0;bottom=0;" vertex="1" parent="EbTDLBitO4-8GcSiULzN-49">
          <mxGeometry y="870" width="300" height="30" as="geometry" />
        </mxCell>
        <mxCell id="EbTDLBitO4-8GcSiULzN-166" value="FK1" style="shape=partialRectangle;overflow=hidden;connectable=0;fillColor=none;top=0;left=0;bottom=0;right=0;" vertex="1" parent="EbTDLBitO4-8GcSiULzN-165">
          <mxGeometry width="30" height="30" as="geometry" />
        </mxCell>
        <mxCell id="EbTDLBitO4-8GcSiULzN-167" value="Segment int [segment number]" style="shape=partialRectangle;overflow=hidden;connectable=0;fillColor=none;top=0;left=0;bottom=0;right=0;align=left;spacingLeft=6;" vertex="1" parent="EbTDLBitO4-8GcSiULzN-165">
          <mxGeometry x="30" width="270" height="30" as="geometry" />
        </mxCell>
        <mxCell id="EbTDLBitO4-8GcSiULzN-162" style="shape=partialRectangle;collapsible=0;dropTarget=0;pointerEvents=0;fillColor=none;points=[[0,0.5],[1,0.5]];portConstraint=eastwest;top=0;left=0;right=0;bottom=0;" vertex="1" parent="EbTDLBitO4-8GcSiULzN-49">
          <mxGeometry y="900" width="300" height="30" as="geometry" />
        </mxCell>
        <mxCell id="EbTDLBitO4-8GcSiULzN-163" style="shape=partialRectangle;overflow=hidden;connectable=0;fillColor=none;top=0;left=0;bottom=0;right=0;" vertex="1" parent="EbTDLBitO4-8GcSiULzN-162">
          <mxGeometry width="30" height="30" as="geometry" />
        </mxCell>
        <mxCell id="EbTDLBitO4-8GcSiULzN-164" value="Seg_Name char(50) [segment name]" style="shape=partialRectangle;overflow=hidden;connectable=0;fillColor=none;top=0;left=0;bottom=0;right=0;align=left;spacingLeft=6;" vertex="1" parent="EbTDLBitO4-8GcSiULzN-162">
          <mxGeometry x="30" width="270" height="30" as="geometry" />
        </mxCell>
      </root>
    </mxGraphModel>
  </diagram>
  <diagram id="WjI4Zht7sJlh5NyFnbJO" name="Page-3">
    <mxGraphModel dx="1006" dy="754" grid="1" gridSize="10" guides="1" tooltips="1" connect="1" arrows="1" fold="1" page="1" pageScale="1" pageWidth="850" pageHeight="1100" math="0" shadow="0">
      <root>
        <mxCell id="NVQhLz7gw2bFKZ5_ykjD-0" />
        <mxCell id="NVQhLz7gw2bFKZ5_ykjD-1" parent="NVQhLz7gw2bFKZ5_ykjD-0" />
        <mxCell id="1tRhYTNzooaoZopLAQ-k-0" value="opportunity_sites" style="shape=table;startSize=30;container=1;collapsible=1;childLayout=tableLayout;fixedRows=1;rowLines=0;fontStyle=1;align=center;resizeLast=1;" vertex="1" parent="NVQhLz7gw2bFKZ5_ykjD-1">
          <mxGeometry x="60" y="30" width="300" height="280" as="geometry">
            <mxRectangle x="120" y="120" width="160" height="30" as="alternateBounds" />
          </mxGeometry>
        </mxCell>
        <mxCell id="1tRhYTNzooaoZopLAQ-k-1" value="" style="shape=partialRectangle;collapsible=0;dropTarget=0;pointerEvents=0;fillColor=none;points=[[0,0.5],[1,0.5]];portConstraint=eastwest;top=0;left=0;right=0;bottom=1;" vertex="1" parent="1tRhYTNzooaoZopLAQ-k-0">
          <mxGeometry y="30" width="300" height="30" as="geometry" />
        </mxCell>
        <mxCell id="1tRhYTNzooaoZopLAQ-k-2" value="PK" style="shape=partialRectangle;overflow=hidden;connectable=0;fillColor=none;top=0;left=0;bottom=0;right=0;fontStyle=1;" vertex="1" parent="1tRhYTNzooaoZopLAQ-k-1">
          <mxGeometry width="30" height="30" as="geometry" />
        </mxCell>
        <mxCell id="1tRhYTNzooaoZopLAQ-k-3" value="OBJECTID int NOT NULL " style="shape=partialRectangle;overflow=hidden;connectable=0;fillColor=none;top=0;left=0;bottom=0;right=0;align=left;spacingLeft=6;fontStyle=5;" vertex="1" parent="1tRhYTNzooaoZopLAQ-k-1">
          <mxGeometry x="30" width="270" height="30" as="geometry" />
        </mxCell>
        <mxCell id="1tRhYTNzooaoZopLAQ-k-4" style="shape=partialRectangle;collapsible=0;dropTarget=0;pointerEvents=0;fillColor=none;points=[[0,0.5],[1,0.5]];portConstraint=eastwest;top=0;left=0;right=0;bottom=0;" vertex="1" parent="1tRhYTNzooaoZopLAQ-k-0">
          <mxGeometry y="60" width="300" height="30" as="geometry" />
        </mxCell>
        <mxCell id="1tRhYTNzooaoZopLAQ-k-5" style="shape=partialRectangle;overflow=hidden;connectable=0;fillColor=none;top=0;left=0;bottom=0;right=0;" vertex="1" parent="1tRhYTNzooaoZopLAQ-k-4">
          <mxGeometry width="30" height="30" as="geometry" />
        </mxCell>
        <mxCell id="1tRhYTNzooaoZopLAQ-k-6" value="Shape geometry NOT NULL" style="shape=partialRectangle;overflow=hidden;connectable=0;fillColor=none;top=0;left=0;bottom=0;right=0;align=left;spacingLeft=6;" vertex="1" parent="1tRhYTNzooaoZopLAQ-k-4">
          <mxGeometry x="30" width="270" height="30" as="geometry" />
        </mxCell>
        <mxCell id="1tRhYTNzooaoZopLAQ-k-7" value="" style="shape=partialRectangle;collapsible=0;dropTarget=0;pointerEvents=0;fillColor=none;points=[[0,0.5],[1,0.5]];portConstraint=eastwest;top=0;left=0;right=0;bottom=0;" vertex="1" parent="1tRhYTNzooaoZopLAQ-k-0">
          <mxGeometry y="90" width="300" height="30" as="geometry" />
        </mxCell>
        <mxCell id="1tRhYTNzooaoZopLAQ-k-8" value="" style="shape=partialRectangle;overflow=hidden;connectable=0;fillColor=none;top=0;left=0;bottom=0;right=0;" vertex="1" parent="1tRhYTNzooaoZopLAQ-k-7">
          <mxGeometry width="30" height="30" as="geometry" />
        </mxCell>
        <mxCell id="1tRhYTNzooaoZopLAQ-k-9" value="Id int" style="shape=partialRectangle;overflow=hidden;connectable=0;fillColor=none;top=0;left=0;bottom=0;right=0;align=left;spacingLeft=6;fontColor=#FF0000;" vertex="1" parent="1tRhYTNzooaoZopLAQ-k-7">
          <mxGeometry x="30" width="270" height="30" as="geometry" />
        </mxCell>
        <mxCell id="1tRhYTNzooaoZopLAQ-k-10" style="shape=partialRectangle;collapsible=0;dropTarget=0;pointerEvents=0;fillColor=none;points=[[0,0.5],[1,0.5]];portConstraint=eastwest;top=0;left=0;right=0;bottom=0;" vertex="1" parent="1tRhYTNzooaoZopLAQ-k-0">
          <mxGeometry y="120" width="300" height="30" as="geometry" />
        </mxCell>
        <mxCell id="1tRhYTNzooaoZopLAQ-k-11" style="shape=partialRectangle;overflow=hidden;connectable=0;fillColor=none;top=0;left=0;bottom=0;right=0;" vertex="1" parent="1tRhYTNzooaoZopLAQ-k-10">
          <mxGeometry width="30" height="30" as="geometry" />
        </mxCell>
        <mxCell id="1tRhYTNzooaoZopLAQ-k-12" value="Changed int [0=no change, 1=change]" style="shape=partialRectangle;overflow=hidden;connectable=0;fillColor=none;top=0;left=0;bottom=0;right=0;align=left;spacingLeft=6;" vertex="1" parent="1tRhYTNzooaoZopLAQ-k-10">
          <mxGeometry x="30" width="270" height="30" as="geometry" />
        </mxCell>
        <mxCell id="1tRhYTNzooaoZopLAQ-k-13" style="shape=partialRectangle;collapsible=0;dropTarget=0;pointerEvents=0;fillColor=none;points=[[0,0.5],[1,0.5]];portConstraint=eastwest;top=0;left=0;right=0;bottom=0;" vertex="1" parent="1tRhYTNzooaoZopLAQ-k-0">
          <mxGeometry y="150" width="300" height="30" as="geometry" />
        </mxCell>
        <mxCell id="1tRhYTNzooaoZopLAQ-k-14" style="shape=partialRectangle;overflow=hidden;connectable=0;fillColor=none;top=0;left=0;bottom=0;right=0;" vertex="1" parent="1tRhYTNzooaoZopLAQ-k-13">
          <mxGeometry width="30" height="30" as="geometry" />
        </mxCell>
        <mxCell id="1tRhYTNzooaoZopLAQ-k-15" value="ACRES float [geometric area in acres]" style="shape=partialRectangle;overflow=hidden;connectable=0;fillColor=none;top=0;left=0;bottom=0;right=0;align=left;spacingLeft=6;" vertex="1" parent="1tRhYTNzooaoZopLAQ-k-13">
          <mxGeometry x="30" width="270" height="30" as="geometry" />
        </mxCell>
        <mxCell id="1tRhYTNzooaoZopLAQ-k-25" style="shape=partialRectangle;collapsible=0;dropTarget=0;pointerEvents=0;fillColor=none;points=[[0,0.5],[1,0.5]];portConstraint=eastwest;top=0;left=0;right=0;bottom=0;" vertex="1" parent="1tRhYTNzooaoZopLAQ-k-0">
          <mxGeometry y="180" width="300" height="30" as="geometry" />
        </mxCell>
        <mxCell id="1tRhYTNzooaoZopLAQ-k-26" style="shape=partialRectangle;overflow=hidden;connectable=0;fillColor=none;top=0;left=0;bottom=0;right=0;" vertex="1" parent="1tRhYTNzooaoZopLAQ-k-25">
          <mxGeometry width="30" height="30" as="geometry" />
        </mxCell>
        <mxCell id="1tRhYTNzooaoZopLAQ-k-27" value="ReviewHDR char(80) [1=drop, 2=add]" style="shape=partialRectangle;overflow=hidden;connectable=0;fillColor=none;top=0;left=0;bottom=0;right=0;align=left;spacingLeft=6;" vertex="1" parent="1tRhYTNzooaoZopLAQ-k-25">
          <mxGeometry x="30" width="270" height="30" as="geometry" />
        </mxCell>
        <mxCell id="1tRhYTNzooaoZopLAQ-k-22" style="shape=partialRectangle;collapsible=0;dropTarget=0;pointerEvents=0;fillColor=none;points=[[0,0.5],[1,0.5]];portConstraint=eastwest;top=0;left=0;right=0;bottom=0;" vertex="1" parent="1tRhYTNzooaoZopLAQ-k-0">
          <mxGeometry y="210" width="300" height="30" as="geometry" />
        </mxCell>
        <mxCell id="1tRhYTNzooaoZopLAQ-k-23" style="shape=partialRectangle;overflow=hidden;connectable=0;fillColor=none;top=0;left=0;bottom=0;right=0;" vertex="1" parent="1tRhYTNzooaoZopLAQ-k-22">
          <mxGeometry width="30" height="30" as="geometry" />
        </mxCell>
        <mxCell id="1tRhYTNzooaoZopLAQ-k-24" value="NotesHDR char(80) [reason for drop/add]" style="shape=partialRectangle;overflow=hidden;connectable=0;fillColor=none;top=0;left=0;bottom=0;right=0;align=left;spacingLeft=6;" vertex="1" parent="1tRhYTNzooaoZopLAQ-k-22">
          <mxGeometry x="30" width="270" height="30" as="geometry" />
        </mxCell>
        <mxCell id="1tRhYTNzooaoZopLAQ-k-19" style="shape=partialRectangle;collapsible=0;dropTarget=0;pointerEvents=0;fillColor=none;points=[[0,0.5],[1,0.5]];portConstraint=eastwest;top=0;left=0;right=0;bottom=0;" vertex="1" parent="1tRhYTNzooaoZopLAQ-k-0">
          <mxGeometry y="240" width="300" height="30" as="geometry" />
        </mxCell>
        <mxCell id="1tRhYTNzooaoZopLAQ-k-20" style="shape=partialRectangle;overflow=hidden;connectable=0;fillColor=none;top=0;left=0;bottom=0;right=0;" vertex="1" parent="1tRhYTNzooaoZopLAQ-k-19">
          <mxGeometry width="30" height="30" as="geometry" />
        </mxCell>
        <mxCell id="1tRhYTNzooaoZopLAQ-k-21" value="CNGDate date [date when change was made]" style="shape=partialRectangle;overflow=hidden;connectable=0;fillColor=none;top=0;left=0;bottom=0;right=0;align=left;spacingLeft=6;" vertex="1" parent="1tRhYTNzooaoZopLAQ-k-19">
          <mxGeometry x="30" width="270" height="30" as="geometry" />
        </mxCell>
        <mxCell id="2s1g214cp_Hxpyl2-FN0-0" value="Buildings_with_floors" style="shape=table;startSize=30;container=1;collapsible=1;childLayout=tableLayout;fixedRows=1;rowLines=0;fontStyle=1;align=center;resizeLast=1;" vertex="1" parent="NVQhLz7gw2bFKZ5_ykjD-1">
          <mxGeometry x="60" y="380" width="250" height="250" as="geometry">
            <mxRectangle x="120" y="120" width="160" height="30" as="alternateBounds" />
          </mxGeometry>
        </mxCell>
        <mxCell id="2s1g214cp_Hxpyl2-FN0-1" value="" style="shape=partialRectangle;collapsible=0;dropTarget=0;pointerEvents=0;fillColor=none;points=[[0,0.5],[1,0.5]];portConstraint=eastwest;top=0;left=0;right=0;bottom=1;" vertex="1" parent="2s1g214cp_Hxpyl2-FN0-0">
          <mxGeometry y="30" width="250" height="30" as="geometry" />
        </mxCell>
        <mxCell id="2s1g214cp_Hxpyl2-FN0-2" value="PK" style="shape=partialRectangle;overflow=hidden;connectable=0;fillColor=none;top=0;left=0;bottom=0;right=0;fontStyle=1;" vertex="1" parent="2s1g214cp_Hxpyl2-FN0-1">
          <mxGeometry width="30" height="30" as="geometry" />
        </mxCell>
        <mxCell id="2s1g214cp_Hxpyl2-FN0-3" value="OBJECTID int NOT NULL " style="shape=partialRectangle;overflow=hidden;connectable=0;fillColor=none;top=0;left=0;bottom=0;right=0;align=left;spacingLeft=6;fontStyle=5;" vertex="1" parent="2s1g214cp_Hxpyl2-FN0-1">
          <mxGeometry x="30" width="220" height="30" as="geometry" />
        </mxCell>
        <mxCell id="2s1g214cp_Hxpyl2-FN0-4" style="shape=partialRectangle;collapsible=0;dropTarget=0;pointerEvents=0;fillColor=none;points=[[0,0.5],[1,0.5]];portConstraint=eastwest;top=0;left=0;right=0;bottom=0;" vertex="1" parent="2s1g214cp_Hxpyl2-FN0-0">
          <mxGeometry y="60" width="250" height="30" as="geometry" />
        </mxCell>
        <mxCell id="2s1g214cp_Hxpyl2-FN0-5" style="shape=partialRectangle;overflow=hidden;connectable=0;fillColor=none;top=0;left=0;bottom=0;right=0;" vertex="1" parent="2s1g214cp_Hxpyl2-FN0-4">
          <mxGeometry width="30" height="30" as="geometry" />
        </mxCell>
        <mxCell id="2s1g214cp_Hxpyl2-FN0-6" value="Shape geometry NOT NULL" style="shape=partialRectangle;overflow=hidden;connectable=0;fillColor=none;top=0;left=0;bottom=0;right=0;align=left;spacingLeft=6;" vertex="1" parent="2s1g214cp_Hxpyl2-FN0-4">
          <mxGeometry x="30" width="220" height="30" as="geometry" />
        </mxCell>
        <mxCell id="2s1g214cp_Hxpyl2-FN0-7" value="" style="shape=partialRectangle;collapsible=0;dropTarget=0;pointerEvents=0;fillColor=none;points=[[0,0.5],[1,0.5]];portConstraint=eastwest;top=0;left=0;right=0;bottom=0;" vertex="1" parent="2s1g214cp_Hxpyl2-FN0-0">
          <mxGeometry y="90" width="250" height="30" as="geometry" />
        </mxCell>
        <mxCell id="2s1g214cp_Hxpyl2-FN0-8" value="" style="shape=partialRectangle;overflow=hidden;connectable=0;fillColor=none;top=0;left=0;bottom=0;right=0;" vertex="1" parent="2s1g214cp_Hxpyl2-FN0-7">
          <mxGeometry width="30" height="30" as="geometry" />
        </mxCell>
        <mxCell id="2s1g214cp_Hxpyl2-FN0-9" value="Height float" style="shape=partialRectangle;overflow=hidden;connectable=0;fillColor=none;top=0;left=0;bottom=0;right=0;align=left;spacingLeft=6;" vertex="1" parent="2s1g214cp_Hxpyl2-FN0-7">
          <mxGeometry x="30" width="220" height="30" as="geometry" />
        </mxCell>
        <mxCell id="2s1g214cp_Hxpyl2-FN0-10" style="shape=partialRectangle;collapsible=0;dropTarget=0;pointerEvents=0;fillColor=none;points=[[0,0.5],[1,0.5]];portConstraint=eastwest;top=0;left=0;right=0;bottom=0;" vertex="1" parent="2s1g214cp_Hxpyl2-FN0-0">
          <mxGeometry y="120" width="250" height="30" as="geometry" />
        </mxCell>
        <mxCell id="2s1g214cp_Hxpyl2-FN0-11" style="shape=partialRectangle;overflow=hidden;connectable=0;fillColor=none;top=0;left=0;bottom=0;right=0;" vertex="1" parent="2s1g214cp_Hxpyl2-FN0-10">
          <mxGeometry width="30" height="30" as="geometry" />
        </mxCell>
        <mxCell id="2s1g214cp_Hxpyl2-FN0-12" value="fl_ar_sq float" style="shape=partialRectangle;overflow=hidden;connectable=0;fillColor=none;top=0;left=0;bottom=0;right=0;align=left;spacingLeft=6;" vertex="1" parent="2s1g214cp_Hxpyl2-FN0-10">
          <mxGeometry x="30" width="220" height="30" as="geometry" />
        </mxCell>
        <mxCell id="2s1g214cp_Hxpyl2-FN0-13" style="shape=partialRectangle;collapsible=0;dropTarget=0;pointerEvents=0;fillColor=none;points=[[0,0.5],[1,0.5]];portConstraint=eastwest;top=0;left=0;right=0;bottom=0;" vertex="1" parent="2s1g214cp_Hxpyl2-FN0-0">
          <mxGeometry y="150" width="250" height="30" as="geometry" />
        </mxCell>
        <mxCell id="2s1g214cp_Hxpyl2-FN0-14" style="shape=partialRectangle;overflow=hidden;connectable=0;fillColor=none;top=0;left=0;bottom=0;right=0;" vertex="1" parent="2s1g214cp_Hxpyl2-FN0-13">
          <mxGeometry width="30" height="30" as="geometry" />
        </mxCell>
        <mxCell id="2s1g214cp_Hxpyl2-FN0-15" value="fl_est float" style="shape=partialRectangle;overflow=hidden;connectable=0;fillColor=none;top=0;left=0;bottom=0;right=0;align=left;spacingLeft=6;" vertex="1" parent="2s1g214cp_Hxpyl2-FN0-13">
          <mxGeometry x="30" width="220" height="30" as="geometry" />
        </mxCell>
        <mxCell id="2s1g214cp_Hxpyl2-FN0-16" style="shape=partialRectangle;collapsible=0;dropTarget=0;pointerEvents=0;fillColor=none;points=[[0,0.5],[1,0.5]];portConstraint=eastwest;top=0;left=0;right=0;bottom=0;" vertex="1" parent="2s1g214cp_Hxpyl2-FN0-0">
          <mxGeometry y="180" width="250" height="30" as="geometry" />
        </mxCell>
        <mxCell id="2s1g214cp_Hxpyl2-FN0-17" style="shape=partialRectangle;overflow=hidden;connectable=0;fillColor=none;top=0;left=0;bottom=0;right=0;" vertex="1" parent="2s1g214cp_Hxpyl2-FN0-16">
          <mxGeometry width="30" height="30" as="geometry" />
        </mxCell>
        <mxCell id="2s1g214cp_Hxpyl2-FN0-18" value="Shape_Length float NOT NULL" style="shape=partialRectangle;overflow=hidden;connectable=0;fillColor=none;top=0;left=0;bottom=0;right=0;align=left;spacingLeft=6;" vertex="1" parent="2s1g214cp_Hxpyl2-FN0-16">
          <mxGeometry x="30" width="220" height="30" as="geometry" />
        </mxCell>
        <mxCell id="2s1g214cp_Hxpyl2-FN0-19" style="shape=partialRectangle;collapsible=0;dropTarget=0;pointerEvents=0;fillColor=none;points=[[0,0.5],[1,0.5]];portConstraint=eastwest;top=0;left=0;right=0;bottom=0;" vertex="1" parent="2s1g214cp_Hxpyl2-FN0-0">
          <mxGeometry y="210" width="250" height="30" as="geometry" />
        </mxCell>
        <mxCell id="2s1g214cp_Hxpyl2-FN0-20" style="shape=partialRectangle;overflow=hidden;connectable=0;fillColor=none;top=0;left=0;bottom=0;right=0;" vertex="1" parent="2s1g214cp_Hxpyl2-FN0-19">
          <mxGeometry width="30" height="30" as="geometry" />
        </mxCell>
        <mxCell id="2s1g214cp_Hxpyl2-FN0-21" value="Shape_Area float NOT NULL" style="shape=partialRectangle;overflow=hidden;connectable=0;fillColor=none;top=0;left=0;bottom=0;right=0;align=left;spacingLeft=6;" vertex="1" parent="2s1g214cp_Hxpyl2-FN0-19">
          <mxGeometry x="30" width="220" height="30" as="geometry" />
        </mxCell>
        <mxCell id="RmlvOEI6Zvu0I79qMtms-0" value="parcels" style="shape=table;startSize=30;container=1;collapsible=1;childLayout=tableLayout;fixedRows=1;rowLines=0;fontStyle=1;align=center;resizeLast=1;" vertex="1" parent="NVQhLz7gw2bFKZ5_ykjD-1">
          <mxGeometry x="460" y="25" width="330" height="1125" as="geometry">
            <mxRectangle x="120" y="120" width="160" height="30" as="alternateBounds" />
          </mxGeometry>
        </mxCell>
        <mxCell id="RmlvOEI6Zvu0I79qMtms-1" value="" style="shape=partialRectangle;collapsible=0;dropTarget=0;pointerEvents=0;fillColor=none;points=[[0,0.5],[1,0.5]];portConstraint=eastwest;top=0;left=0;right=0;bottom=1;" vertex="1" parent="RmlvOEI6Zvu0I79qMtms-0">
          <mxGeometry y="30" width="330" height="30" as="geometry" />
        </mxCell>
        <mxCell id="RmlvOEI6Zvu0I79qMtms-2" value="PK" style="shape=partialRectangle;overflow=hidden;connectable=0;fillColor=none;top=0;left=0;bottom=0;right=0;fontStyle=1;" vertex="1" parent="RmlvOEI6Zvu0I79qMtms-1">
          <mxGeometry width="30" height="30" as="geometry" />
        </mxCell>
        <mxCell id="RmlvOEI6Zvu0I79qMtms-3" value="OBJECTID int NOT NULL " style="shape=partialRectangle;overflow=hidden;connectable=0;fillColor=none;top=0;left=0;bottom=0;right=0;align=left;spacingLeft=6;fontStyle=5;" vertex="1" parent="RmlvOEI6Zvu0I79qMtms-1">
          <mxGeometry x="30" width="300" height="30" as="geometry" />
        </mxCell>
        <mxCell id="RmlvOEI6Zvu0I79qMtms-4" style="shape=partialRectangle;collapsible=0;dropTarget=0;pointerEvents=0;fillColor=none;points=[[0,0.5],[1,0.5]];portConstraint=eastwest;top=0;left=0;right=0;bottom=0;" vertex="1" parent="RmlvOEI6Zvu0I79qMtms-0">
          <mxGeometry y="60" width="330" height="30" as="geometry" />
        </mxCell>
        <mxCell id="RmlvOEI6Zvu0I79qMtms-5" style="shape=partialRectangle;overflow=hidden;connectable=0;fillColor=none;top=0;left=0;bottom=0;right=0;" vertex="1" parent="RmlvOEI6Zvu0I79qMtms-4">
          <mxGeometry width="30" height="30" as="geometry" />
        </mxCell>
        <mxCell id="RmlvOEI6Zvu0I79qMtms-6" value="Shape geometry NOT NULL" style="shape=partialRectangle;overflow=hidden;connectable=0;fillColor=none;top=0;left=0;bottom=0;right=0;align=left;spacingLeft=6;" vertex="1" parent="RmlvOEI6Zvu0I79qMtms-4">
          <mxGeometry x="30" width="300" height="30" as="geometry" />
        </mxCell>
        <mxCell id="RmlvOEI6Zvu0I79qMtms-7" value="" style="shape=partialRectangle;collapsible=0;dropTarget=0;pointerEvents=0;fillColor=none;points=[[0,0.5],[1,0.5]];portConstraint=eastwest;top=0;left=0;right=0;bottom=0;" vertex="1" parent="RmlvOEI6Zvu0I79qMtms-0">
          <mxGeometry y="90" width="330" height="30" as="geometry" />
        </mxCell>
        <mxCell id="RmlvOEI6Zvu0I79qMtms-8" value="" style="shape=partialRectangle;overflow=hidden;connectable=0;fillColor=none;top=0;left=0;bottom=0;right=0;" vertex="1" parent="RmlvOEI6Zvu0I79qMtms-7">
          <mxGeometry width="30" height="30" as="geometry" />
        </mxCell>
        <mxCell id="RmlvOEI6Zvu0I79qMtms-9" value="ParclD char(80) [unique parcel identifier]" style="shape=partialRectangle;overflow=hidden;connectable=0;fillColor=none;top=0;left=0;bottom=0;right=0;align=left;spacingLeft=6;" vertex="1" parent="RmlvOEI6Zvu0I79qMtms-7">
          <mxGeometry x="30" width="300" height="30" as="geometry" />
        </mxCell>
        <mxCell id="RmlvOEI6Zvu0I79qMtms-10" style="shape=partialRectangle;collapsible=0;dropTarget=0;pointerEvents=0;fillColor=none;points=[[0,0.5],[1,0.5]];portConstraint=eastwest;top=0;left=0;right=0;bottom=0;" vertex="1" parent="RmlvOEI6Zvu0I79qMtms-0">
          <mxGeometry y="120" width="330" height="30" as="geometry" />
        </mxCell>
        <mxCell id="RmlvOEI6Zvu0I79qMtms-11" style="shape=partialRectangle;overflow=hidden;connectable=0;fillColor=none;top=0;left=0;bottom=0;right=0;" vertex="1" parent="RmlvOEI6Zvu0I79qMtms-10">
          <mxGeometry width="30" height="30" as="geometry" />
        </mxCell>
        <mxCell id="RmlvOEI6Zvu0I79qMtms-12" value="PropID double" style="shape=partialRectangle;overflow=hidden;connectable=0;fillColor=none;top=0;left=0;bottom=0;right=0;align=left;spacingLeft=6;fontColor=#FF0000;" vertex="1" parent="RmlvOEI6Zvu0I79qMtms-10">
          <mxGeometry x="30" width="300" height="30" as="geometry" />
        </mxCell>
        <mxCell id="RmlvOEI6Zvu0I79qMtms-13" style="shape=partialRectangle;collapsible=0;dropTarget=0;pointerEvents=0;fillColor=none;points=[[0,0.5],[1,0.5]];portConstraint=eastwest;top=0;left=0;right=0;bottom=0;" vertex="1" parent="RmlvOEI6Zvu0I79qMtms-0">
          <mxGeometry y="150" width="330" height="30" as="geometry" />
        </mxCell>
        <mxCell id="RmlvOEI6Zvu0I79qMtms-14" style="shape=partialRectangle;overflow=hidden;connectable=0;fillColor=none;top=0;left=0;bottom=0;right=0;" vertex="1" parent="RmlvOEI6Zvu0I79qMtms-13">
          <mxGeometry width="30" height="30" as="geometry" />
        </mxCell>
        <mxCell id="RmlvOEI6Zvu0I79qMtms-15" value="Landuse char(80) [generalized LU from HDR]" style="shape=partialRectangle;overflow=hidden;connectable=0;fillColor=none;top=0;left=0;bottom=0;right=0;align=left;spacingLeft=6;" vertex="1" parent="RmlvOEI6Zvu0I79qMtms-13">
          <mxGeometry x="30" width="300" height="30" as="geometry" />
        </mxCell>
        <mxCell id="RmlvOEI6Zvu0I79qMtms-16" style="shape=partialRectangle;collapsible=0;dropTarget=0;pointerEvents=0;fillColor=none;points=[[0,0.5],[1,0.5]];portConstraint=eastwest;top=0;left=0;right=0;bottom=0;" vertex="1" parent="RmlvOEI6Zvu0I79qMtms-0">
          <mxGeometry y="180" width="330" height="45" as="geometry" />
        </mxCell>
        <mxCell id="RmlvOEI6Zvu0I79qMtms-17" style="shape=partialRectangle;overflow=hidden;connectable=0;fillColor=none;top=0;left=0;bottom=0;right=0;" vertex="1" parent="RmlvOEI6Zvu0I79qMtms-16">
          <mxGeometry width="30" height="45" as="geometry" />
        </mxCell>
        <mxCell id="RmlvOEI6Zvu0I79qMtms-18" value="DO_Site int [parcel has significant overlap with&#xa;                    a feature in `opportunity_sites`]" style="shape=partialRectangle;overflow=hidden;connectable=0;fillColor=none;top=0;left=0;bottom=0;right=0;align=left;spacingLeft=6;fontColor=#009900;" vertex="1" parent="RmlvOEI6Zvu0I79qMtms-16">
          <mxGeometry x="30" width="300" height="45" as="geometry" />
        </mxCell>
        <mxCell id="RmlvOEI6Zvu0I79qMtms-19" style="shape=partialRectangle;collapsible=0;dropTarget=0;pointerEvents=0;fillColor=none;points=[[0,0.5],[1,0.5]];portConstraint=eastwest;top=0;left=0;right=0;bottom=0;" vertex="1" parent="RmlvOEI6Zvu0I79qMtms-0">
          <mxGeometry y="225" width="330" height="50" as="geometry" />
        </mxCell>
        <mxCell id="RmlvOEI6Zvu0I79qMtms-20" style="shape=partialRectangle;overflow=hidden;connectable=0;fillColor=none;top=0;left=0;bottom=0;right=0;" vertex="1" parent="RmlvOEI6Zvu0I79qMtms-19">
          <mxGeometry width="30" height="50" as="geometry" />
        </mxCell>
        <mxCell id="RmlvOEI6Zvu0I79qMtms-21" value="PrtlDOS int [only a portion of the parcel (less&#xa;                    than 90%) overlaps features in&#xa;                    `opportunity_sites`&#xa;" style="shape=partialRectangle;overflow=hidden;connectable=0;fillColor=none;top=0;left=0;bottom=0;right=0;align=left;spacingLeft=6;fontColor=#009900;" vertex="1" parent="RmlvOEI6Zvu0I79qMtms-19">
          <mxGeometry x="30" width="300" height="50" as="geometry" />
        </mxCell>
        <mxCell id="RmlvOEI6Zvu0I79qMtms-91" style="shape=partialRectangle;collapsible=0;dropTarget=0;pointerEvents=0;fillColor=none;points=[[0,0.5],[1,0.5]];portConstraint=eastwest;top=0;left=0;right=0;bottom=0;" vertex="1" parent="RmlvOEI6Zvu0I79qMtms-0">
          <mxGeometry y="275" width="330" height="50" as="geometry" />
        </mxCell>
        <mxCell id="RmlvOEI6Zvu0I79qMtms-92" style="shape=partialRectangle;overflow=hidden;connectable=0;fillColor=none;top=0;left=0;bottom=0;right=0;" vertex="1" parent="RmlvOEI6Zvu0I79qMtms-91">
          <mxGeometry width="30" height="50" as="geometry" />
        </mxCell>
        <mxCell id="RmlvOEI6Zvu0I79qMtms-93" value="PrtlDOS int [only a portion of the parcel (less&#xa;                    than 90%) overlaps features in&#xa;                    `opportunity_sites`&#xa;" style="shape=partialRectangle;overflow=hidden;connectable=0;fillColor=none;top=0;left=0;bottom=0;right=0;align=left;spacingLeft=6;fontColor=#009900;" vertex="1" parent="RmlvOEI6Zvu0I79qMtms-91">
          <mxGeometry x="30" width="300" height="50" as="geometry" />
        </mxCell>
        <mxCell id="RmlvOEI6Zvu0I79qMtms-22" style="shape=partialRectangle;collapsible=0;dropTarget=0;pointerEvents=0;fillColor=none;points=[[0,0.5],[1,0.5]];portConstraint=eastwest;top=0;left=0;right=0;bottom=0;" vertex="1" parent="RmlvOEI6Zvu0I79qMtms-0">
          <mxGeometry y="325" width="330" height="50" as="geometry" />
        </mxCell>
        <mxCell id="RmlvOEI6Zvu0I79qMtms-23" style="shape=partialRectangle;overflow=hidden;connectable=0;fillColor=none;top=0;left=0;bottom=0;right=0;" vertex="1" parent="RmlvOEI6Zvu0I79qMtms-22">
          <mxGeometry width="30" height="50" as="geometry" />
        </mxCell>
        <mxCell id="RmlvOEI6Zvu0I79qMtms-24" value="DOS_AR float [the area (acres) of the portion of the&#xa;                        parcel that overlaps features in&#xa;                        `opportunity_sites`]&#xa;" style="shape=partialRectangle;overflow=hidden;connectable=0;fillColor=none;top=0;left=0;bottom=0;right=0;align=left;spacingLeft=6;fontColor=#009900;" vertex="1" parent="RmlvOEI6Zvu0I79qMtms-22">
          <mxGeometry x="30" width="300" height="50" as="geometry" />
        </mxCell>
        <mxCell id="RmlvOEI6Zvu0I79qMtms-25" style="shape=partialRectangle;collapsible=0;dropTarget=0;pointerEvents=0;fillColor=none;points=[[0,0.5],[1,0.5]];portConstraint=eastwest;top=0;left=0;right=0;bottom=0;" vertex="1" parent="RmlvOEI6Zvu0I79qMtms-0">
          <mxGeometry y="375" width="330" height="50" as="geometry" />
        </mxCell>
        <mxCell id="RmlvOEI6Zvu0I79qMtms-26" style="shape=partialRectangle;overflow=hidden;connectable=0;fillColor=none;top=0;left=0;bottom=0;right=0;" vertex="1" parent="RmlvOEI6Zvu0I79qMtms-25">
          <mxGeometry width="30" height="50" as="geometry" />
        </mxCell>
        <mxCell id="RmlvOEI6Zvu0I79qMtms-27" value="DOSProp float [the proportion of the parcel&#39;s area&#xa;                         that overlaps features in &#xa;                         `opportunity_sites`&#xa;" style="shape=partialRectangle;overflow=hidden;connectable=0;fillColor=none;top=0;left=0;bottom=0;right=0;align=left;spacingLeft=6;fontColor=#009900;" vertex="1" parent="RmlvOEI6Zvu0I79qMtms-25">
          <mxGeometry x="30" width="300" height="50" as="geometry" />
        </mxCell>
        <mxCell id="RmlvOEI6Zvu0I79qMtms-28" style="shape=partialRectangle;collapsible=0;dropTarget=0;pointerEvents=0;fillColor=none;points=[[0,0.5],[1,0.5]];portConstraint=eastwest;top=0;left=0;right=0;bottom=0;" vertex="1" parent="RmlvOEI6Zvu0I79qMtms-0">
          <mxGeometry y="425" width="330" height="30" as="geometry" />
        </mxCell>
        <mxCell id="RmlvOEI6Zvu0I79qMtms-29" style="shape=partialRectangle;overflow=hidden;connectable=0;fillColor=none;top=0;left=0;bottom=0;right=0;" vertex="1" parent="RmlvOEI6Zvu0I79qMtms-28">
          <mxGeometry width="30" height="30" as="geometry" />
        </mxCell>
        <mxCell id="RmlvOEI6Zvu0I79qMtms-30" value="Address char(80) [parcel street address]" style="shape=partialRectangle;overflow=hidden;connectable=0;fillColor=none;top=0;left=0;bottom=0;right=0;align=left;spacingLeft=6;" vertex="1" parent="RmlvOEI6Zvu0I79qMtms-28">
          <mxGeometry x="30" width="300" height="30" as="geometry" />
        </mxCell>
        <mxCell id="RmlvOEI6Zvu0I79qMtms-31" style="shape=partialRectangle;collapsible=0;dropTarget=0;pointerEvents=0;fillColor=none;points=[[0,0.5],[1,0.5]];portConstraint=eastwest;top=0;left=0;right=0;bottom=0;" vertex="1" parent="RmlvOEI6Zvu0I79qMtms-0">
          <mxGeometry y="455" width="330" height="30" as="geometry" />
        </mxCell>
        <mxCell id="RmlvOEI6Zvu0I79qMtms-32" style="shape=partialRectangle;overflow=hidden;connectable=0;fillColor=none;top=0;left=0;bottom=0;right=0;" vertex="1" parent="RmlvOEI6Zvu0I79qMtms-31">
          <mxGeometry width="30" height="30" as="geometry" />
        </mxCell>
        <mxCell id="RmlvOEI6Zvu0I79qMtms-33" value="SalePri int [parcel sale price]" style="shape=partialRectangle;overflow=hidden;connectable=0;fillColor=none;top=0;left=0;bottom=0;right=0;align=left;spacingLeft=6;" vertex="1" parent="RmlvOEI6Zvu0I79qMtms-31">
          <mxGeometry x="30" width="300" height="30" as="geometry" />
        </mxCell>
        <mxCell id="RmlvOEI6Zvu0I79qMtms-34" style="shape=partialRectangle;collapsible=0;dropTarget=0;pointerEvents=0;fillColor=none;points=[[0,0.5],[1,0.5]];portConstraint=eastwest;top=0;left=0;right=0;bottom=0;" vertex="1" parent="RmlvOEI6Zvu0I79qMtms-0">
          <mxGeometry y="485" width="330" height="30" as="geometry" />
        </mxCell>
        <mxCell id="RmlvOEI6Zvu0I79qMtms-35" style="shape=partialRectangle;overflow=hidden;connectable=0;fillColor=none;top=0;left=0;bottom=0;right=0;" vertex="1" parent="RmlvOEI6Zvu0I79qMtms-34">
          <mxGeometry width="30" height="30" as="geometry" />
        </mxCell>
        <mxCell id="RmlvOEI6Zvu0I79qMtms-36" value="LandVal int [estimated land value]" style="shape=partialRectangle;overflow=hidden;connectable=0;fillColor=none;top=0;left=0;bottom=0;right=0;align=left;spacingLeft=6;" vertex="1" parent="RmlvOEI6Zvu0I79qMtms-34">
          <mxGeometry x="30" width="300" height="30" as="geometry" />
        </mxCell>
        <mxCell id="RmlvOEI6Zvu0I79qMtms-37" style="shape=partialRectangle;collapsible=0;dropTarget=0;pointerEvents=0;fillColor=none;points=[[0,0.5],[1,0.5]];portConstraint=eastwest;top=0;left=0;right=0;bottom=0;" vertex="1" parent="RmlvOEI6Zvu0I79qMtms-0">
          <mxGeometry y="515" width="330" height="30" as="geometry" />
        </mxCell>
        <mxCell id="RmlvOEI6Zvu0I79qMtms-38" style="shape=partialRectangle;overflow=hidden;connectable=0;fillColor=none;top=0;left=0;bottom=0;right=0;" vertex="1" parent="RmlvOEI6Zvu0I79qMtms-37">
          <mxGeometry width="30" height="30" as="geometry" />
        </mxCell>
        <mxCell id="RmlvOEI6Zvu0I79qMtms-39" value="BldVal int [estimated building value (sparse)]" style="shape=partialRectangle;overflow=hidden;connectable=0;fillColor=none;top=0;left=0;bottom=0;right=0;align=left;spacingLeft=6;fontColor=#FF8000;" vertex="1" parent="RmlvOEI6Zvu0I79qMtms-37">
          <mxGeometry x="30" width="300" height="30" as="geometry" />
        </mxCell>
        <mxCell id="RmlvOEI6Zvu0I79qMtms-40" style="shape=partialRectangle;collapsible=0;dropTarget=0;pointerEvents=0;fillColor=none;points=[[0,0.5],[1,0.5]];portConstraint=eastwest;top=0;left=0;right=0;bottom=0;" vertex="1" parent="RmlvOEI6Zvu0I79qMtms-0">
          <mxGeometry y="545" width="330" height="30" as="geometry" />
        </mxCell>
        <mxCell id="RmlvOEI6Zvu0I79qMtms-41" style="shape=partialRectangle;overflow=hidden;connectable=0;fillColor=none;top=0;left=0;bottom=0;right=0;" vertex="1" parent="RmlvOEI6Zvu0I79qMtms-40">
          <mxGeometry width="30" height="30" as="geometry" />
        </mxCell>
        <mxCell id="RmlvOEI6Zvu0I79qMtms-42" value="BldA_AC float [estimated building floor area in acres]" style="shape=partialRectangle;overflow=hidden;connectable=0;fillColor=none;top=0;left=0;bottom=0;right=0;align=left;spacingLeft=6;fontColor=#0000FF;" vertex="1" parent="RmlvOEI6Zvu0I79qMtms-40">
          <mxGeometry x="30" width="300" height="30" as="geometry" />
        </mxCell>
        <mxCell id="RmlvOEI6Zvu0I79qMtms-43" style="shape=partialRectangle;collapsible=0;dropTarget=0;pointerEvents=0;fillColor=none;points=[[0,0.5],[1,0.5]];portConstraint=eastwest;top=0;left=0;right=0;bottom=0;" vertex="1" parent="RmlvOEI6Zvu0I79qMtms-0">
          <mxGeometry y="575" width="330" height="50" as="geometry" />
        </mxCell>
        <mxCell id="RmlvOEI6Zvu0I79qMtms-44" style="shape=partialRectangle;overflow=hidden;connectable=0;fillColor=none;top=0;left=0;bottom=0;right=0;" vertex="1" parent="RmlvOEI6Zvu0I79qMtms-43">
          <mxGeometry width="30" height="50" as="geometry" />
        </mxCell>
        <mxCell id="RmlvOEI6Zvu0I79qMtms-45" value="TotVal int [total value (relationship to `LandVal`, &#xa;                `BldVal` unclear)]" style="shape=partialRectangle;overflow=hidden;connectable=0;fillColor=none;top=0;left=0;bottom=0;right=0;align=left;spacingLeft=6;fontColor=#FF8000;" vertex="1" parent="RmlvOEI6Zvu0I79qMtms-43">
          <mxGeometry x="30" width="300" height="50" as="geometry" />
        </mxCell>
        <mxCell id="RmlvOEI6Zvu0I79qMtms-46" style="shape=partialRectangle;collapsible=0;dropTarget=0;pointerEvents=0;fillColor=none;points=[[0,0.5],[1,0.5]];portConstraint=eastwest;top=0;left=0;right=0;bottom=0;" vertex="1" parent="RmlvOEI6Zvu0I79qMtms-0">
          <mxGeometry y="625" width="330" height="30" as="geometry" />
        </mxCell>
        <mxCell id="RmlvOEI6Zvu0I79qMtms-47" style="shape=partialRectangle;overflow=hidden;connectable=0;fillColor=none;top=0;left=0;bottom=0;right=0;" vertex="1" parent="RmlvOEI6Zvu0I79qMtms-46">
          <mxGeometry width="30" height="30" as="geometry" />
        </mxCell>
        <mxCell id="RmlvOEI6Zvu0I79qMtms-48" value="Area_AC float [land area in acres]" style="shape=partialRectangle;overflow=hidden;connectable=0;fillColor=none;top=0;left=0;bottom=0;right=0;align=left;spacingLeft=6;" vertex="1" parent="RmlvOEI6Zvu0I79qMtms-46">
          <mxGeometry x="30" width="300" height="30" as="geometry" />
        </mxCell>
        <mxCell id="RmlvOEI6Zvu0I79qMtms-49" style="shape=partialRectangle;collapsible=0;dropTarget=0;pointerEvents=0;fillColor=none;points=[[0,0.5],[1,0.5]];portConstraint=eastwest;top=0;left=0;right=0;bottom=0;" vertex="1" parent="RmlvOEI6Zvu0I79qMtms-0">
          <mxGeometry y="655" width="330" height="30" as="geometry" />
        </mxCell>
        <mxCell id="RmlvOEI6Zvu0I79qMtms-50" style="shape=partialRectangle;overflow=hidden;connectable=0;fillColor=none;top=0;left=0;bottom=0;right=0;" vertex="1" parent="RmlvOEI6Zvu0I79qMtms-49">
          <mxGeometry width="30" height="30" as="geometry" />
        </mxCell>
        <mxCell id="RmlvOEI6Zvu0I79qMtms-51" value="SlPrAcr float [sale price per acre]" style="shape=partialRectangle;overflow=hidden;connectable=0;fillColor=none;top=0;left=0;bottom=0;right=0;align=left;spacingLeft=6;" vertex="1" parent="RmlvOEI6Zvu0I79qMtms-49">
          <mxGeometry x="30" width="300" height="30" as="geometry" />
        </mxCell>
        <mxCell id="RmlvOEI6Zvu0I79qMtms-52" style="shape=partialRectangle;collapsible=0;dropTarget=0;pointerEvents=0;fillColor=none;points=[[0,0.5],[1,0.5]];portConstraint=eastwest;top=0;left=0;right=0;bottom=0;" vertex="1" parent="RmlvOEI6Zvu0I79qMtms-0">
          <mxGeometry y="685" width="330" height="30" as="geometry" />
        </mxCell>
        <mxCell id="RmlvOEI6Zvu0I79qMtms-53" style="shape=partialRectangle;overflow=hidden;connectable=0;fillColor=none;top=0;left=0;bottom=0;right=0;" vertex="1" parent="RmlvOEI6Zvu0I79qMtms-52">
          <mxGeometry width="30" height="30" as="geometry" />
        </mxCell>
        <mxCell id="RmlvOEI6Zvu0I79qMtms-54" value="County char(80) [ county name]" style="shape=partialRectangle;overflow=hidden;connectable=0;fillColor=none;top=0;left=0;bottom=0;right=0;align=left;spacingLeft=6;" vertex="1" parent="RmlvOEI6Zvu0I79qMtms-52">
          <mxGeometry x="30" width="300" height="30" as="geometry" />
        </mxCell>
        <mxCell id="RmlvOEI6Zvu0I79qMtms-55" style="shape=partialRectangle;collapsible=0;dropTarget=0;pointerEvents=0;fillColor=none;points=[[0,0.5],[1,0.5]];portConstraint=eastwest;top=0;left=0;right=0;bottom=0;" vertex="1" parent="RmlvOEI6Zvu0I79qMtms-0">
          <mxGeometry y="715" width="330" height="30" as="geometry" />
        </mxCell>
        <mxCell id="RmlvOEI6Zvu0I79qMtms-56" style="shape=partialRectangle;overflow=hidden;connectable=0;fillColor=none;top=0;left=0;bottom=0;right=0;" vertex="1" parent="RmlvOEI6Zvu0I79qMtms-55">
          <mxGeometry width="30" height="30" as="geometry" />
        </mxCell>
        <mxCell id="RmlvOEI6Zvu0I79qMtms-57" value="NumBlds int [number of buildings (sparse?)]" style="shape=partialRectangle;overflow=hidden;connectable=0;fillColor=none;top=0;left=0;bottom=0;right=0;align=left;spacingLeft=6;fontColor=#0000FF;" vertex="1" parent="RmlvOEI6Zvu0I79qMtms-55">
          <mxGeometry x="30" width="300" height="30" as="geometry" />
        </mxCell>
        <mxCell id="RmlvOEI6Zvu0I79qMtms-58" style="shape=partialRectangle;collapsible=0;dropTarget=0;pointerEvents=0;fillColor=none;points=[[0,0.5],[1,0.5]];portConstraint=eastwest;top=0;left=0;right=0;bottom=0;" vertex="1" parent="RmlvOEI6Zvu0I79qMtms-0">
          <mxGeometry y="745" width="330" height="30" as="geometry" />
        </mxCell>
        <mxCell id="RmlvOEI6Zvu0I79qMtms-59" style="shape=partialRectangle;overflow=hidden;connectable=0;fillColor=none;top=0;left=0;bottom=0;right=0;" vertex="1" parent="RmlvOEI6Zvu0I79qMtms-58">
          <mxGeometry width="30" height="30" as="geometry" />
        </mxCell>
        <mxCell id="RmlvOEI6Zvu0I79qMtms-60" value="BldLandR float [building:land value ratio?]" style="shape=partialRectangle;overflow=hidden;connectable=0;fillColor=none;top=0;left=0;bottom=0;right=0;align=left;spacingLeft=6;fontColor=#0000FF;" vertex="1" parent="RmlvOEI6Zvu0I79qMtms-58">
          <mxGeometry x="30" width="300" height="30" as="geometry" />
        </mxCell>
        <mxCell id="RmlvOEI6Zvu0I79qMtms-61" style="shape=partialRectangle;collapsible=0;dropTarget=0;pointerEvents=0;fillColor=none;points=[[0,0.5],[1,0.5]];portConstraint=eastwest;top=0;left=0;right=0;bottom=0;" vertex="1" parent="RmlvOEI6Zvu0I79qMtms-0">
          <mxGeometry y="775" width="330" height="30" as="geometry" />
        </mxCell>
        <mxCell id="RmlvOEI6Zvu0I79qMtms-62" value="" style="shape=partialRectangle;overflow=hidden;connectable=0;fillColor=none;top=0;left=0;bottom=0;right=0;" vertex="1" parent="RmlvOEI6Zvu0I79qMtms-61">
          <mxGeometry width="30" height="30" as="geometry" />
        </mxCell>
        <mxCell id="RmlvOEI6Zvu0I79qMtms-63" value="seg_name char(80) [segment name]" style="shape=partialRectangle;overflow=hidden;connectable=0;fillColor=none;top=0;left=0;bottom=0;right=0;align=left;spacingLeft=6;" vertex="1" parent="RmlvOEI6Zvu0I79qMtms-61">
          <mxGeometry x="30" width="300" height="30" as="geometry" />
        </mxCell>
        <mxCell id="RmlvOEI6Zvu0I79qMtms-64" style="shape=partialRectangle;collapsible=0;dropTarget=0;pointerEvents=0;fillColor=none;points=[[0,0.5],[1,0.5]];portConstraint=eastwest;top=0;left=0;right=0;bottom=0;" vertex="1" parent="RmlvOEI6Zvu0I79qMtms-0">
          <mxGeometry y="805" width="330" height="30" as="geometry" />
        </mxCell>
        <mxCell id="RmlvOEI6Zvu0I79qMtms-65" value="FK" style="shape=partialRectangle;overflow=hidden;connectable=0;fillColor=none;top=0;left=0;bottom=0;right=0;" vertex="1" parent="RmlvOEI6Zvu0I79qMtms-64">
          <mxGeometry width="30" height="30" as="geometry" />
        </mxCell>
        <mxCell id="RmlvOEI6Zvu0I79qMtms-66" value="seg_num int [segment number]" style="shape=partialRectangle;overflow=hidden;connectable=0;fillColor=none;top=0;left=0;bottom=0;right=0;align=left;spacingLeft=6;" vertex="1" parent="RmlvOEI6Zvu0I79qMtms-64">
          <mxGeometry x="30" width="300" height="30" as="geometry" />
        </mxCell>
        <mxCell id="RmlvOEI6Zvu0I79qMtms-67" style="shape=partialRectangle;collapsible=0;dropTarget=0;pointerEvents=0;fillColor=none;points=[[0,0.5],[1,0.5]];portConstraint=eastwest;top=0;left=0;right=0;bottom=0;" vertex="1" parent="RmlvOEI6Zvu0I79qMtms-0">
          <mxGeometry y="835" width="330" height="40" as="geometry" />
        </mxCell>
        <mxCell id="RmlvOEI6Zvu0I79qMtms-68" style="shape=partialRectangle;overflow=hidden;connectable=0;fillColor=none;top=0;left=0;bottom=0;right=0;" vertex="1" parent="RmlvOEI6Zvu0I79qMtms-67">
          <mxGeometry width="30" height="40" as="geometry" />
        </mxCell>
        <mxCell id="RmlvOEI6Zvu0I79qMtms-69" value="in_pipe int [parcel has an associated &#xa;                  `pipeline_with_pid` feature]" style="shape=partialRectangle;overflow=hidden;connectable=0;fillColor=none;top=0;left=0;bottom=0;right=0;align=left;spacingLeft=6;fontColor=#009900;" vertex="1" parent="RmlvOEI6Zvu0I79qMtms-67">
          <mxGeometry x="30" width="300" height="40" as="geometry" />
        </mxCell>
        <mxCell id="RmlvOEI6Zvu0I79qMtms-70" style="shape=partialRectangle;collapsible=0;dropTarget=0;pointerEvents=0;fillColor=none;points=[[0,0.5],[1,0.5]];portConstraint=eastwest;top=0;left=0;right=0;bottom=0;" vertex="1" parent="RmlvOEI6Zvu0I79qMtms-0">
          <mxGeometry y="875" width="330" height="30" as="geometry" />
        </mxCell>
        <mxCell id="RmlvOEI6Zvu0I79qMtms-71" style="shape=partialRectangle;overflow=hidden;connectable=0;fillColor=none;top=0;left=0;bottom=0;right=0;" vertex="1" parent="RmlvOEI6Zvu0I79qMtms-70">
          <mxGeometry width="30" height="30" as="geometry" />
        </mxCell>
        <mxCell id="RmlvOEI6Zvu0I79qMtms-72" value="Sq_Feet float [land area in square feet]" style="shape=partialRectangle;overflow=hidden;connectable=0;fillColor=none;top=0;left=0;bottom=0;right=0;align=left;spacingLeft=6;" vertex="1" parent="RmlvOEI6Zvu0I79qMtms-70">
          <mxGeometry x="30" width="300" height="30" as="geometry" />
        </mxCell>
        <mxCell id="RmlvOEI6Zvu0I79qMtms-73" style="shape=partialRectangle;collapsible=0;dropTarget=0;pointerEvents=0;fillColor=none;points=[[0,0.5],[1,0.5]];portConstraint=eastwest;top=0;left=0;right=0;bottom=0;" vertex="1" parent="RmlvOEI6Zvu0I79qMtms-0">
          <mxGeometry y="905" width="330" height="30" as="geometry" />
        </mxCell>
        <mxCell id="RmlvOEI6Zvu0I79qMtms-74" style="shape=partialRectangle;overflow=hidden;connectable=0;fillColor=none;top=0;left=0;bottom=0;right=0;" vertex="1" parent="RmlvOEI6Zvu0I79qMtms-73">
          <mxGeometry width="30" height="30" as="geometry" />
        </mxCell>
        <mxCell id="RmlvOEI6Zvu0I79qMtms-75" value="Exp_LU char(80) [expected future land use]" style="shape=partialRectangle;overflow=hidden;connectable=0;fillColor=none;top=0;left=0;bottom=0;right=0;align=left;spacingLeft=6;fontStyle=0;fontColor=#009900;" vertex="1" parent="RmlvOEI6Zvu0I79qMtms-73">
          <mxGeometry x="30" width="300" height="30" as="geometry" />
        </mxCell>
        <mxCell id="RmlvOEI6Zvu0I79qMtms-76" style="shape=partialRectangle;collapsible=0;dropTarget=0;pointerEvents=0;fillColor=none;points=[[0,0.5],[1,0.5]];portConstraint=eastwest;top=0;left=0;right=0;bottom=0;" vertex="1" parent="RmlvOEI6Zvu0I79qMtms-0">
          <mxGeometry y="935" width="330" height="30" as="geometry" />
        </mxCell>
        <mxCell id="RmlvOEI6Zvu0I79qMtms-77" style="shape=partialRectangle;overflow=hidden;connectable=0;fillColor=none;top=0;left=0;bottom=0;right=0;" vertex="1" parent="RmlvOEI6Zvu0I79qMtms-76">
          <mxGeometry width="30" height="30" as="geometry" />
        </mxCell>
        <mxCell id="RmlvOEI6Zvu0I79qMtms-78" value="SF_Cpct int [capacity for future SF residents]" style="shape=partialRectangle;overflow=hidden;connectable=0;fillColor=none;top=0;left=0;bottom=0;right=0;align=left;spacingLeft=6;fontStyle=0;fontColor=#0000FF;" vertex="1" parent="RmlvOEI6Zvu0I79qMtms-76">
          <mxGeometry x="30" width="300" height="30" as="geometry" />
        </mxCell>
        <mxCell id="RmlvOEI6Zvu0I79qMtms-79" style="shape=partialRectangle;collapsible=0;dropTarget=0;pointerEvents=0;fillColor=none;points=[[0,0.5],[1,0.5]];portConstraint=eastwest;top=0;left=0;right=0;bottom=0;" vertex="1" parent="RmlvOEI6Zvu0I79qMtms-0">
          <mxGeometry y="965" width="330" height="30" as="geometry" />
        </mxCell>
        <mxCell id="RmlvOEI6Zvu0I79qMtms-80" style="shape=partialRectangle;overflow=hidden;connectable=0;fillColor=none;top=0;left=0;bottom=0;right=0;" vertex="1" parent="RmlvOEI6Zvu0I79qMtms-79">
          <mxGeometry width="30" height="30" as="geometry" />
        </mxCell>
        <mxCell id="RmlvOEI6Zvu0I79qMtms-81" value="BldSqFt float [estimated building area in sq feet]" style="shape=partialRectangle;overflow=hidden;connectable=0;fillColor=none;top=0;left=0;bottom=0;right=0;align=left;spacingLeft=6;labelBackgroundColor=#ffffff;fontColor=#009900;" vertex="1" parent="RmlvOEI6Zvu0I79qMtms-79">
          <mxGeometry x="30" width="300" height="30" as="geometry" />
        </mxCell>
        <mxCell id="RmlvOEI6Zvu0I79qMtms-82" style="shape=partialRectangle;collapsible=0;dropTarget=0;pointerEvents=0;fillColor=none;points=[[0,0.5],[1,0.5]];portConstraint=eastwest;top=0;left=0;right=0;bottom=0;" vertex="1" parent="RmlvOEI6Zvu0I79qMtms-0">
          <mxGeometry y="995" width="330" height="40" as="geometry" />
        </mxCell>
        <mxCell id="RmlvOEI6Zvu0I79qMtms-83" style="shape=partialRectangle;overflow=hidden;connectable=0;fillColor=none;top=0;left=0;bottom=0;right=0;" vertex="1" parent="RmlvOEI6Zvu0I79qMtms-82">
          <mxGeometry width="30" height="40" as="geometry" />
        </mxCell>
        <mxCell id="RmlvOEI6Zvu0I79qMtms-84" value="Mean_FAR float [average FAR among nearby &#xa;                           non-vacant parcels]" style="shape=partialRectangle;overflow=hidden;connectable=0;fillColor=none;top=0;left=0;bottom=0;right=0;align=left;spacingLeft=6;fontColor=#009900;" vertex="1" parent="RmlvOEI6Zvu0I79qMtms-82">
          <mxGeometry x="30" width="300" height="40" as="geometry" />
        </mxCell>
        <mxCell id="RmlvOEI6Zvu0I79qMtms-85" style="shape=partialRectangle;collapsible=0;dropTarget=0;pointerEvents=0;fillColor=none;points=[[0,0.5],[1,0.5]];portConstraint=eastwest;top=0;left=0;right=0;bottom=0;" vertex="1" parent="RmlvOEI6Zvu0I79qMtms-0">
          <mxGeometry y="1035" width="330" height="40" as="geometry" />
        </mxCell>
        <mxCell id="RmlvOEI6Zvu0I79qMtms-86" value="" style="shape=partialRectangle;overflow=hidden;connectable=0;fillColor=none;top=0;left=0;bottom=0;right=0;" vertex="1" parent="RmlvOEI6Zvu0I79qMtms-85">
          <mxGeometry width="30" height="40" as="geometry" />
        </mxCell>
        <mxCell id="RmlvOEI6Zvu0I79qMtms-87" value="Max_FAR float [max FAR among nearby non-vacant &#xa;                         parcels]" style="shape=partialRectangle;overflow=hidden;connectable=0;fillColor=none;top=0;left=0;bottom=0;right=0;align=left;spacingLeft=6;fontColor=#009900;" vertex="1" parent="RmlvOEI6Zvu0I79qMtms-85">
          <mxGeometry x="30" width="300" height="40" as="geometry" />
        </mxCell>
        <mxCell id="RmlvOEI6Zvu0I79qMtms-88" style="shape=partialRectangle;collapsible=0;dropTarget=0;pointerEvents=0;fillColor=none;points=[[0,0.5],[1,0.5]];portConstraint=eastwest;top=0;left=0;right=0;bottom=0;" vertex="1" parent="RmlvOEI6Zvu0I79qMtms-0">
          <mxGeometry y="1075" width="330" height="40" as="geometry" />
        </mxCell>
        <mxCell id="RmlvOEI6Zvu0I79qMtms-89" style="shape=partialRectangle;overflow=hidden;connectable=0;fillColor=none;top=0;left=0;bottom=0;right=0;" vertex="1" parent="RmlvOEI6Zvu0I79qMtms-88">
          <mxGeometry width="30" height="40" as="geometry" />
        </mxCell>
        <mxCell id="RmlvOEI6Zvu0I79qMtms-90" value="EXP_Sqft float [naive expected floor area for future &#xa;                         parcel development]" style="shape=partialRectangle;overflow=hidden;connectable=0;fillColor=none;top=0;left=0;bottom=0;right=0;align=left;spacingLeft=6;fontColor=#009900;" vertex="1" parent="RmlvOEI6Zvu0I79qMtms-88">
          <mxGeometry x="30" width="300" height="40" as="geometry" />
        </mxCell>
      </root>
    </mxGraphModel>
  </diagram>
</mxfile>
